<?xml version="1.0" encoding="utf-8"?>
<svg xmlns="http://www.w3.org/2000/svg" xmlns:xlink="http://www.w3.org/1999/xlink" width="600" height="400" viewBox="0 0 2400 1600">
<defs>
  <clipPath id="clip440">
    <rect x="0" y="0" width="2400" height="1600"/>
  </clipPath>
</defs>
<path clip-path="url(#clip440)" d="M0 1600 L2400 1600 L2400 0 L0 0  Z" fill="#ffffff" fill-rule="evenodd" fill-opacity="1"/>
<defs>
  <clipPath id="clip441">
    <rect x="480" y="0" width="1681" height="1600"/>
  </clipPath>
</defs>
<path clip-path="url(#clip440)" d="M272.297 642.531 L2352.76 642.531 L2352.76 47.2441 L272.297 47.2441  Z" fill="#ffffff" fill-rule="evenodd" fill-opacity="1"/>
<defs>
  <clipPath id="clip442">
    <rect x="272" y="47" width="2081" height="596"/>
  </clipPath>
</defs>
<polyline clip-path="url(#clip442)" style="stroke:#000000; stroke-linecap:round; stroke-linejoin:round; stroke-width:2; stroke-opacity:0.1; fill:none" points="1116.26,642.531 1116.26,47.2441 "/>
<polyline clip-path="url(#clip442)" style="stroke:#000000; stroke-linecap:round; stroke-linejoin:round; stroke-width:2; stroke-opacity:0.1; fill:none" points="2293.87,642.531 2293.87,47.2441 "/>
<polyline clip-path="url(#clip442)" style="stroke:#000000; stroke-linecap:round; stroke-linejoin:round; stroke-width:2; stroke-opacity:0.1; fill:none" points="272.297,421.663 2352.76,421.663 "/>
<polyline clip-path="url(#clip442)" style="stroke:#000000; stroke-linecap:round; stroke-linejoin:round; stroke-width:2; stroke-opacity:0.1; fill:none" points="272.297,115.632 2352.76,115.632 "/>
<polyline clip-path="url(#clip440)" style="stroke:#000000; stroke-linecap:round; stroke-linejoin:round; stroke-width:4; stroke-opacity:1; fill:none" points="272.297,642.531 2352.76,642.531 "/>
<polyline clip-path="url(#clip440)" style="stroke:#000000; stroke-linecap:round; stroke-linejoin:round; stroke-width:4; stroke-opacity:1; fill:none" points="1116.26,642.531 1116.26,623.633 "/>
<polyline clip-path="url(#clip440)" style="stroke:#000000; stroke-linecap:round; stroke-linejoin:round; stroke-width:4; stroke-opacity:1; fill:none" points="2293.87,642.531 2293.87,623.633 "/>
<path clip-path="url(#clip440)" d="M1081.24 716.655 L1088.88 716.655 L1088.88 690.29 L1080.57 691.957 L1080.57 687.697 L1088.83 686.031 L1093.51 686.031 L1093.51 716.655 L1101.15 716.655 L1101.15 720.591 L1081.24 720.591 L1081.24 716.655 Z" fill="#000000" fill-rule="nonzero" fill-opacity="1" /><path clip-path="url(#clip440)" d="M1120.59 689.109 Q1116.98 689.109 1115.15 692.674 Q1113.35 696.216 1113.35 703.345 Q1113.35 710.452 1115.15 714.017 Q1116.98 717.558 1120.59 717.558 Q1124.23 717.558 1126.03 714.017 Q1127.86 710.452 1127.86 703.345 Q1127.86 696.216 1126.03 692.674 Q1124.23 689.109 1120.59 689.109 M1120.59 685.406 Q1126.4 685.406 1129.46 690.012 Q1132.54 694.595 1132.54 703.345 Q1132.54 712.072 1129.46 716.679 Q1126.4 721.262 1120.59 721.262 Q1114.78 721.262 1111.7 716.679 Q1108.65 712.072 1108.65 703.345 Q1108.65 694.595 1111.7 690.012 Q1114.78 685.406 1120.59 685.406 Z" fill="#000000" fill-rule="nonzero" fill-opacity="1" /><path clip-path="url(#clip440)" d="M1142.24 667.602 Q1139.31 667.602 1137.82 670.498 Q1136.35 673.376 1136.35 679.168 Q1136.35 684.942 1137.82 687.839 Q1139.31 690.716 1142.24 690.716 Q1145.19 690.716 1146.66 687.839 Q1148.15 684.942 1148.15 679.168 Q1148.15 673.376 1146.66 670.498 Q1145.19 667.602 1142.24 667.602 M1142.24 664.592 Q1146.96 664.592 1149.44 668.335 Q1151.94 672.059 1151.94 679.168 Q1151.94 686.259 1149.44 690.002 Q1146.96 693.726 1142.24 693.726 Q1137.52 693.726 1135.02 690.002 Q1132.54 686.259 1132.54 679.168 Q1132.54 672.059 1135.02 668.335 Q1137.52 664.592 1142.24 664.592 Z" fill="#000000" fill-rule="nonzero" fill-opacity="1" /><path clip-path="url(#clip440)" d="M2259.32 716.655 L2266.96 716.655 L2266.96 690.29 L2258.65 691.957 L2258.65 687.697 L2266.91 686.031 L2271.59 686.031 L2271.59 716.655 L2279.23 716.655 L2279.23 720.591 L2259.32 720.591 L2259.32 716.655 Z" fill="#000000" fill-rule="nonzero" fill-opacity="1" /><path clip-path="url(#clip440)" d="M2298.67 689.109 Q2295.06 689.109 2293.23 692.674 Q2291.42 696.216 2291.42 703.345 Q2291.42 710.452 2293.23 714.017 Q2295.06 717.558 2298.67 717.558 Q2302.3 717.558 2304.11 714.017 Q2305.94 710.452 2305.94 703.345 Q2305.94 696.216 2304.11 692.674 Q2302.3 689.109 2298.67 689.109 M2298.67 685.406 Q2304.48 685.406 2307.54 690.012 Q2310.61 694.595 2310.61 703.345 Q2310.61 712.072 2307.54 716.679 Q2304.48 721.262 2298.67 721.262 Q2292.86 721.262 2289.78 716.679 Q2286.73 712.072 2286.73 703.345 Q2286.73 694.595 2289.78 690.012 Q2292.86 685.406 2298.67 685.406 Z" fill="#000000" fill-rule="nonzero" fill-opacity="1" /><path clip-path="url(#clip440)" d="M2323.31 678.04 Q2326.04 678.623 2327.56 680.466 Q2329.1 682.309 2329.1 685.018 Q2329.1 689.174 2326.24 691.45 Q2323.39 693.726 2318.12 693.726 Q2316.35 693.726 2314.47 693.368 Q2312.61 693.03 2310.61 692.334 L2310.61 688.666 Q2312.19 689.588 2314.08 690.058 Q2315.96 690.528 2318.01 690.528 Q2321.58 690.528 2323.44 689.118 Q2325.32 687.707 2325.32 685.018 Q2325.32 682.535 2323.57 681.143 Q2321.84 679.733 2318.74 679.733 L2315.47 679.733 L2315.47 676.611 L2318.89 676.611 Q2321.69 676.611 2323.18 675.501 Q2324.66 674.372 2324.66 672.266 Q2324.66 670.103 2323.12 668.956 Q2321.6 667.79 2318.74 667.79 Q2317.18 667.79 2315.39 668.128 Q2313.61 668.467 2311.46 669.182 L2311.46 665.796 Q2313.62 665.194 2315.5 664.893 Q2317.4 664.592 2319.08 664.592 Q2323.4 664.592 2325.92 666.567 Q2328.44 668.523 2328.44 671.871 Q2328.44 674.203 2327.11 675.821 Q2325.77 677.419 2323.31 678.04 Z" fill="#000000" fill-rule="nonzero" fill-opacity="1" /><polyline clip-path="url(#clip440)" style="stroke:#000000; stroke-linecap:round; stroke-linejoin:round; stroke-width:4; stroke-opacity:1; fill:none" points="272.297,642.531 272.297,47.2441 "/>
<polyline clip-path="url(#clip440)" style="stroke:#000000; stroke-linecap:round; stroke-linejoin:round; stroke-width:4; stroke-opacity:1; fill:none" points="272.297,421.663 291.194,421.663 "/>
<polyline clip-path="url(#clip440)" style="stroke:#000000; stroke-linecap:round; stroke-linejoin:round; stroke-width:4; stroke-opacity:1; fill:none" points="272.297,115.632 291.194,115.632 "/>
<path clip-path="url(#clip440)" d="M135.386 441.455 L143.024 441.455 L143.024 415.09 L134.714 416.756 L134.714 412.497 L142.978 410.83 L147.654 410.83 L147.654 441.455 L155.293 441.455 L155.293 445.39 L135.386 445.39 L135.386 441.455 Z" fill="#000000" fill-rule="nonzero" fill-opacity="1" /><path clip-path="url(#clip440)" d="M174.737 413.909 Q171.126 413.909 169.297 417.474 Q167.492 421.016 167.492 428.145 Q167.492 435.252 169.297 438.816 Q171.126 442.358 174.737 442.358 Q178.372 442.358 180.177 438.816 Q182.006 435.252 182.006 428.145 Q182.006 421.016 180.177 417.474 Q178.372 413.909 174.737 413.909 M174.737 410.205 Q180.547 410.205 183.603 414.812 Q186.682 419.395 186.682 428.145 Q186.682 436.872 183.603 441.478 Q180.547 446.062 174.737 446.062 Q168.927 446.062 165.848 441.478 Q162.793 436.872 162.793 428.145 Q162.793 419.395 165.848 414.812 Q168.927 410.205 174.737 410.205 Z" fill="#000000" fill-rule="nonzero" fill-opacity="1" /><path clip-path="url(#clip440)" d="M186.682 404.307 L210.793 404.307 L210.793 407.504 L186.682 407.504 L186.682 404.307 Z" fill="#000000" fill-rule="nonzero" fill-opacity="1" /><path clip-path="url(#clip440)" d="M230.504 402.84 Q233.231 403.423 234.754 405.266 Q236.297 407.109 236.297 409.817 Q236.297 413.974 233.438 416.25 Q230.579 418.525 225.313 418.525 Q223.545 418.525 221.664 418.168 Q219.802 417.83 217.809 417.134 L217.809 413.466 Q219.388 414.388 221.269 414.858 Q223.15 415.328 225.2 415.328 Q228.773 415.328 230.635 413.917 Q232.516 412.507 232.516 409.817 Q232.516 407.335 230.767 405.943 Q229.037 404.532 225.933 404.532 L222.661 404.532 L222.661 401.41 L226.084 401.41 Q228.886 401.41 230.372 400.301 Q231.858 399.172 231.858 397.066 Q231.858 394.903 230.316 393.756 Q228.792 392.589 225.933 392.589 Q224.372 392.589 222.586 392.928 Q220.799 393.267 218.655 393.981 L218.655 390.596 Q220.818 389.994 222.699 389.693 Q224.598 389.392 226.272 389.392 Q230.598 389.392 233.118 391.367 Q235.638 393.323 235.638 396.671 Q235.638 399.003 234.303 400.62 Q232.968 402.219 230.504 402.84 Z" fill="#000000" fill-rule="nonzero" fill-opacity="1" /><path clip-path="url(#clip440)" d="M165.591 135.424 L173.23 135.424 L173.23 109.059 L164.92 110.725 L164.92 106.466 L173.183 104.8 L177.859 104.8 L177.859 135.424 L185.498 135.424 L185.498 139.36 L165.591 139.36 L165.591 135.424 Z" fill="#000000" fill-rule="nonzero" fill-opacity="1" /><path clip-path="url(#clip440)" d="M204.943 107.878 Q201.331 107.878 199.503 111.443 Q197.697 114.985 197.697 122.114 Q197.697 129.221 199.503 132.785 Q201.331 136.327 204.943 136.327 Q208.577 136.327 210.382 132.785 Q212.211 129.221 212.211 122.114 Q212.211 114.985 210.382 111.443 Q208.577 107.878 204.943 107.878 M204.943 104.175 Q210.753 104.175 213.808 108.781 Q216.887 113.364 216.887 122.114 Q216.887 130.841 213.808 135.447 Q210.753 140.031 204.943 140.031 Q199.132 140.031 196.054 135.447 Q192.998 130.841 192.998 122.114 Q192.998 113.364 196.054 108.781 Q199.132 104.175 204.943 104.175 Z" fill="#000000" fill-rule="nonzero" fill-opacity="1" /><path clip-path="url(#clip440)" d="M226.592 86.3705 Q223.658 86.3705 222.172 89.2669 Q220.705 92.1445 220.705 97.9373 Q220.705 103.711 222.172 106.608 Q223.658 109.485 226.592 109.485 Q229.545 109.485 231.012 106.608 Q232.497 103.711 232.497 97.9373 Q232.497 92.1445 231.012 89.2669 Q229.545 86.3705 226.592 86.3705 M226.592 83.3613 Q231.312 83.3613 233.795 87.104 Q236.297 90.828 236.297 97.9373 Q236.297 105.028 233.795 108.771 Q231.312 112.495 226.592 112.495 Q221.871 112.495 219.37 108.771 Q216.887 105.028 216.887 97.9373 Q216.887 90.828 219.37 87.104 Q221.871 83.3613 226.592 83.3613 Z" fill="#000000" fill-rule="nonzero" fill-opacity="1" /><path clip-path="url(#clip440)" d="M36.9383 524.719 L36.9383 515.138 L69.2761 503.012 L36.9383 490.821 L36.9383 481.241 L84.4583 481.241 L84.4583 487.511 L42.7311 487.511 L75.3235 499.765 L75.3235 506.226 L42.7311 518.48 L84.4583 518.48 L84.4583 524.719 L36.9383 524.719 Z" fill="#000000" fill-rule="nonzero" fill-opacity="1" /><path clip-path="url(#clip440)" d="M66.5389 452.531 Q66.5389 459.629 68.1621 462.366 Q69.7854 465.104 73.7003 465.104 Q76.8195 465.104 78.6655 463.067 Q80.4798 460.998 80.4798 457.465 Q80.4798 452.595 77.0423 449.667 Q73.573 446.707 67.8438 446.707 L66.5389 446.707 L66.5389 452.531 M64.1199 440.85 L84.4583 440.85 L84.4583 446.707 L79.0475 446.707 Q82.294 448.712 83.8536 451.704 Q85.3814 454.696 85.3814 459.024 Q85.3814 464.499 82.3258 467.746 Q79.2385 470.96 74.0822 470.96 Q68.0666 470.96 65.0111 466.95 Q61.9556 462.908 61.9556 454.919 L61.9556 446.707 L61.3826 446.707 Q57.3404 446.707 55.1443 449.38 Q52.9163 452.022 52.9163 456.828 Q52.9163 459.884 53.6483 462.78 Q54.3804 465.677 55.8445 468.35 L50.4336 468.35 Q49.1923 465.136 48.5876 462.112 Q47.951 459.088 47.951 456.224 Q47.951 448.489 51.9614 444.67 Q55.9718 440.85 64.1199 440.85 Z" fill="#000000" fill-rule="nonzero" fill-opacity="1" /><path clip-path="url(#clip440)" d="M66.2206 405.33 Q59.8549 405.33 56.3537 407.972 Q52.8526 410.581 52.8526 415.324 Q52.8526 420.035 56.3537 422.676 Q59.8549 425.286 66.2206 425.286 Q72.5545 425.286 76.0556 422.676 Q79.5567 420.035 79.5567 415.324 Q79.5567 410.581 76.0556 407.972 Q72.5545 405.33 66.2206 405.33 M80.0342 399.473 Q89.1371 399.473 93.5613 403.516 Q98.0173 407.558 98.0173 415.897 Q98.0173 418.984 97.5399 421.721 Q97.0943 424.459 96.1394 427.037 L90.4421 427.037 Q91.8425 424.459 92.5109 421.944 Q93.1793 419.43 93.1793 416.82 Q93.1793 411.059 90.1556 408.194 Q87.1638 405.33 81.0845 405.33 L78.1881 405.33 Q81.3391 407.144 82.8987 409.977 Q84.4583 412.809 84.4583 416.756 Q84.4583 423.313 79.4613 427.323 Q74.4642 431.334 66.2206 431.334 Q57.9452 431.334 52.9481 427.323 Q47.951 423.313 47.951 416.756 Q47.951 412.809 49.5106 409.977 Q51.0702 407.144 54.2212 405.33 L48.8104 405.33 L48.8104 399.473 L80.0342 399.473 Z" fill="#000000" fill-rule="nonzero" fill-opacity="1" /><path clip-path="url(#clip440)" d="M62.9422 357.778 L84.4583 357.778 L84.4583 363.634 L63.1332 363.634 Q58.0725 363.634 55.558 365.608 Q53.0436 367.581 53.0436 371.528 Q53.0436 376.27 56.0673 379.008 Q59.091 381.745 64.3109 381.745 L84.4583 381.745 L84.4583 387.633 L48.8104 387.633 L48.8104 381.745 L54.3485 381.745 Q51.1339 379.644 49.5424 376.811 Q47.951 373.947 47.951 370.223 Q47.951 364.08 51.7704 360.929 Q55.558 357.778 62.9422 357.778 Z" fill="#000000" fill-rule="nonzero" fill-opacity="1" /><path clip-path="url(#clip440)" d="M48.8104 346.097 L48.8104 340.24 L84.4583 340.24 L84.4583 346.097 L48.8104 346.097 M34.9331 346.097 L34.9331 340.24 L42.3492 340.24 L42.3492 346.097 L34.9331 346.097 Z" fill="#000000" fill-rule="nonzero" fill-opacity="1" /><path clip-path="url(#clip440)" d="M38.6889 322.194 L48.8104 322.194 L48.8104 310.131 L53.3619 310.131 L53.3619 322.194 L72.7136 322.194 Q77.0741 322.194 78.3154 321.016 Q79.5567 319.806 79.5567 316.146 L79.5567 310.131 L84.4583 310.131 L84.4583 316.146 Q84.4583 322.926 81.9439 325.504 Q79.3976 328.082 72.7136 328.082 L53.3619 328.082 L53.3619 332.379 L48.8104 332.379 L48.8104 328.082 L38.6889 328.082 L38.6889 322.194 Z" fill="#000000" fill-rule="nonzero" fill-opacity="1" /><path clip-path="url(#clip440)" d="M70.3901 303.033 L48.8104 303.033 L48.8104 297.176 L70.1673 297.176 Q75.2281 297.176 77.7743 295.203 Q80.2888 293.23 80.2888 289.283 Q80.2888 284.54 77.2651 281.803 Q74.2414 279.034 69.0215 279.034 L48.8104 279.034 L48.8104 273.178 L84.4583 273.178 L84.4583 279.034 L78.9838 279.034 Q82.2303 281.167 83.8218 283.999 Q85.3814 286.8 85.3814 290.524 Q85.3814 296.667 81.5619 299.85 Q77.7425 303.033 70.3901 303.033 M47.951 288.296 L47.951 288.296 Z" fill="#000000" fill-rule="nonzero" fill-opacity="1" /><path clip-path="url(#clip440)" d="M54.2212 237.657 L34.9331 237.657 L34.9331 231.801 L84.4583 231.801 L84.4583 237.657 L79.1111 237.657 Q82.294 239.503 83.8536 242.336 Q85.3814 245.137 85.3814 249.083 Q85.3814 255.545 80.2251 259.619 Q75.0689 263.661 66.6662 263.661 Q58.2634 263.661 53.1072 259.619 Q47.951 255.545 47.951 249.083 Q47.951 245.137 49.5106 242.336 Q51.0384 239.503 54.2212 237.657 M66.6662 257.614 Q73.1274 257.614 76.8195 254.972 Q80.4798 252.298 80.4798 247.651 Q80.4798 243.004 76.8195 240.331 Q73.1274 237.657 66.6662 237.657 Q60.205 237.657 56.5447 240.331 Q52.8526 243.004 52.8526 247.651 Q52.8526 252.298 56.5447 254.972 Q60.205 257.614 66.6662 257.614 Z" fill="#000000" fill-rule="nonzero" fill-opacity="1" /><path clip-path="url(#clip440)" d="M65.1702 189.246 L68.0348 189.246 L68.0348 216.173 Q74.0822 215.791 77.2651 212.544 Q80.4161 209.266 80.4161 203.441 Q80.4161 200.068 79.5886 196.917 Q78.761 193.734 77.1059 190.614 L82.6441 190.614 Q83.9809 193.766 84.6811 197.076 Q85.3814 200.386 85.3814 203.791 Q85.3814 212.322 80.4161 217.319 Q75.4509 222.284 66.9845 222.284 Q58.2316 222.284 53.1072 217.573 Q47.951 212.831 47.951 204.81 Q47.951 197.617 52.598 193.447 Q57.2131 189.246 65.1702 189.246 M63.4515 195.102 Q58.6454 195.166 55.7808 197.808 Q52.9163 200.418 52.9163 204.746 Q52.9163 209.648 55.6853 212.608 Q58.4544 215.536 63.4833 215.982 L63.4515 195.102 Z" fill="#000000" fill-rule="nonzero" fill-opacity="1" /><path clip-path="url(#clip442)" d="M331.177 151.723 L765.141 151.692 L932.808 151.499 L991.985 151.274 L1041.3 150.918 L1080.75 150.438 L1120.2 149.664 L1149.79 148.782 L1179.38 147.505 L1199.1 146.341 L1208.97 145.635 L1218.83 144.831 L1228.69 143.911 L1238.56 142.856 L1248.42 141.644 L1258.28 140.244 L1268.14 138.623 L1278.01 136.735 L1287.87 134.524 L1297.73 131.918 L1307.59 128.821 L1317.46 125.105 L1327.32 120.6 L1337.18 115.079 L1347.05 108.268 L1356.91 105.447 L1366.77 115.087 L1376.63 124.073 L1386.5 132.483 L1396.36 140.408 L1406.22 147.926 L1416.09 155.105 L1425.95 162 L1435.81 168.656 L1445.67 175.11 L1455.54 181.391 L1475.26 193.535 L1494.99 205.24 L1524.58 222.208 L1554.16 238.68 L1583.75 254.818 L1623.2 275.99 L1672.52 302.114 L1731.7 333.183 L1889.5 415.463 L2293.87 625.683 L2293.87 625.682 L1889.5 415.399 L1731.7 332.77 L1672.52 301.276 L1623.2 274.469 L1583.75 252.34 L1554.16 235.072 L1524.58 216.882 L1494.99 197.218 L1475.26 182.811 L1455.54 166.766 L1445.67 157.859 L1435.81 148.141 L1425.95 137.371 L1416.09 125.258 L1406.22 111.595 L1396.36 97.0935 L1386.5 85.9193 L1376.63 82.7941 L1366.77 79.8417 L1356.91 77.0129 L1347.05 74.3105 L1337.18 71.6103 L1327.32 68.5807 L1317.46 65.9472 L1307.59 64.1456 L1297.73 66.8009 L1287.87 71.9724 L1278.01 77.5694 L1268.14 82.7194 L1258.28 87.2021 L1248.42 91.0332 L1238.56 94.2934 L1228.69 97.0713 L1218.83 99.4464 L1208.97 101.485 L1199.1 103.242 L1179.38 106.081 L1149.79 109.109 L1120.2 111.148 L1080.75 112.902 L1041.3 113.976 L991.985 114.763 L932.808 115.259 L765.141 115.681 L331.177 115.749  Z" fill="#009af9" fill-rule="evenodd" fill-opacity="0.5"/>
<polyline clip-path="url(#clip442)" style="stroke:#009af9; stroke-linecap:round; stroke-linejoin:round; stroke-width:4; stroke-opacity:1; fill:none" points="331.177,126.409 765.141,126.352 932.808,125.998 991.985,125.582 1041.3,124.922 1080.75,124.024 1120.2,122.559 1149.79,120.861 1179.38,118.347 1199.1,115.997 1208.97,114.546 1218.83,112.864 1228.69,110.907 1238.56,108.618 1248.42,105.93 1258.28,102.761 1268.14,99.019 1278.01,94.6303 1287.87,89.6194 1297.73,84.339 1307.59,79.8679 1317.46,77.9368 1327.32,79.4275 1337.18,83.4361 1347.05,88.6016 1356.91,94.2639 1366.77,100.416 1376.63,107.479 1386.5,116.154 1396.36,126.376 1406.22,136.584 1416.09,145.96 1425.95,154.532 1435.81,162.475 1445.67,169.933 1455.54,177.015 1475.26,190.336 1494.99,202.852 1524.58,220.625 1554.16,237.609 1583.75,254.082 1623.2,275.539 1672.52,301.866 1731.7,333.061 1889.5,415.444 2293.87,625.683 "/>
<polyline clip-path="url(#clip442)" style="stroke:#009af9; stroke-linecap:round; stroke-linejoin:round; stroke-width:4; stroke-opacity:0.25; fill:none" points="331.177,120.361 765.141,120.3 932.808,119.918 991.985,119.469 1041.3,118.757 1080.75,117.788 1120.2,116.209 1149.79,114.379 1179.38,111.672 1199.1,109.145 1208.97,107.586 1218.83,105.78 1228.69,103.681 1238.56,101.23 1248.42,98.3533 1258.28,94.9639 1268.14,90.9598 1278.01,86.2416 1287.87,80.772 1297.73,74.7665 1307.59,69.1942 1317.46,66.4902 1327.32,69.5452 1337.18,78.0347 1347.05,88.9172 1356.91,100.002 1366.77,110.485 1376.63,120.214 1386.5,129.242 1396.36,137.672 1406.22,145.603 1416.09,153.122 1425.95,160.298 1435.81,167.189 1445.67,173.84 1455.54,180.289 1475.26,192.696 1494.99,204.596 1524.58,221.768 1554.16,238.377 1583.75,254.607 1623.2,275.86 1672.52,302.042 1731.7,333.147 1889.5,415.457 2293.87,625.683 "/>
<polyline clip-path="url(#clip442)" style="stroke:#009af9; stroke-linecap:round; stroke-linejoin:round; stroke-width:4; stroke-opacity:0.25; fill:none" points="331.177,139.812 765.141,139.772 932.808,139.522 991.985,139.229 1041.3,138.767 1080.75,138.14 1120.2,137.127 1149.79,135.967 1179.38,134.275 1199.1,132.721 1208.97,131.775 1218.83,130.689 1228.69,129.442 1238.56,128.002 1248.42,126.335 1258.28,124.395 1268.14,122.124 1278.01,119.452 1287.87,116.282 1297.73,112.493 1307.59,107.928 1317.46,102.393 1327.32,95.7056 1337.18,87.9095 1347.05,80.1281 1356.91,76.4006 1366.77,81.6597 1376.63,93.5196 1386.5,106.698 1396.36,119.03 1406.22,130.173 1416.09,140.261 1425.95,149.491 1435.81,158.039 1445.67,166.041 1455.54,173.602 1475.26,187.709 1494.99,200.822 1524.58,219.235 1554.16,236.648 1583.75,253.414 1623.2,275.125 1672.52,301.636 1731.7,332.947 1889.5,415.426 2293.87,625.683 "/>
<polyline clip-path="url(#clip442)" style="stroke:#009af9; stroke-linecap:round; stroke-linejoin:round; stroke-width:4; stroke-opacity:0.25; fill:none" points="331.177,115.897 765.141,115.829 932.808,115.408 991.985,114.913 1041.3,114.129 1080.75,113.059 1120.2,111.31 1149.79,109.278 1179.38,106.261 1199.1,103.433 1208.97,101.683 1218.83,99.6518 1228.69,97.2861 1238.56,94.519 1248.42,91.2715 1258.28,87.4547 1268.14,82.9862 1278.01,77.8461 1287.87,72.242 1297.73,67.0186 1307.59,64.2355 1317.46,66.5001 1327.32,73.9945 1337.18,84.211 1347.05,94.9574 1356.91,105.288 1366.77,114.953 1376.63,123.96 1386.5,132.388 1396.36,140.327 1406.22,147.857 1416.09,155.046 1425.95,161.949 1435.81,168.612 1445.67,175.072 1455.54,181.358 1475.26,193.509 1494.99,205.221 1524.58,222.195 1554.16,238.671 1583.75,254.811 1623.2,275.986 1672.52,302.112 1731.7,333.182 1889.5,415.463 2293.87,625.683 "/>
<polyline clip-path="url(#clip442)" style="stroke:#009af9; stroke-linecap:round; stroke-linejoin:round; stroke-width:4; stroke-opacity:0.25; fill:none" points="331.177,115.661 765.141,115.593 932.808,115.17 991.985,114.673 1041.3,113.884 1080.75,112.808 1120.2,111.051 1149.79,109.007 1179.38,105.973 1199.1,103.128 1208.97,101.367 1218.83,99.3236 1228.69,96.943 1238.56,94.1585 1248.42,90.8908 1258.28,87.0513 1268.14,82.56 1278.01,77.4042 1287.87,71.8114 1297.73,66.6708 1307.59,64.0918 1317.46,66.6218 1327.32,74.2809 1337.18,84.5328 1347.05,95.2534 1356.91,105.542 1366.77,115.168 1376.63,124.14 1386.5,132.54 1396.36,140.456 1406.22,147.967 1416.09,155.14 1425.95,162.03 1435.81,168.682 1445.67,175.132 1455.54,181.411 1475.26,193.55 1494.99,205.252 1524.58,222.216 1554.16,238.686 1583.75,254.821 1623.2,275.993 1672.52,302.115 1731.7,333.184 1889.5,415.463 2293.87,625.683 "/>
<polyline clip-path="url(#clip442)" style="stroke:#009af9; stroke-linecap:round; stroke-linejoin:round; stroke-width:4; stroke-opacity:0.25; fill:none" points="331.177,116.364 765.141,116.297 932.808,115.88 991.985,115.39 1041.3,114.614 1080.75,113.555 1120.2,111.825 1149.79,109.815 1179.38,106.832 1199.1,104.037 1208.97,102.308 1218.83,100.302 1228.69,97.965 1238.56,95.2324 1248.42,92.0249 1258.28,88.2531 1268.14,83.8306 1278.01,78.7244 1287.87,73.1047 1297.73,67.731 1307.59,64.558 1317.46,66.2896 1327.32,73.4358 1337.18,83.5691 1347.05,94.3631 1356.91,104.775 1366.77,114.521 1376.63,123.597 1386.5,132.082 1396.36,140.068 1406.22,147.636 1416.09,154.857 1425.95,161.787 1435.81,168.472 1445.67,174.95 1455.54,181.252 1475.26,193.429 1494.99,205.159 1524.58,222.152 1554.16,238.642 1583.75,254.791 1623.2,275.974 1672.52,302.105 1731.7,333.179 1889.5,415.462 2293.87,625.683 "/>
<polyline clip-path="url(#clip442)" style="stroke:#009af9; stroke-linecap:round; stroke-linejoin:round; stroke-width:4; stroke-opacity:0.25; fill:none" points="331.177,153.484 765.141,153.455 932.808,153.27 991.985,153.053 1041.3,152.712 1080.75,152.252 1120.2,151.511 1149.79,150.666 1179.38,149.445 1199.1,148.333 1208.97,147.66 1218.83,146.893 1228.69,146.017 1238.56,145.013 1248.42,143.86 1258.28,142.532 1268.14,140.996 1278.01,139.211 1287.87,137.125 1297.73,134.673 1307.59,131.767 1317.46,128.295 1327.32,124.1 1337.18,118.974 1347.05,112.64 1356.91,104.79 1366.77,95.3839 1376.63,86.1626 1386.5,83.943 1396.36,93.7427 1406.22,108.511 1416.09,122.727 1425.95,135.329 1435.81,146.481 1445.67,156.496 1455.54,165.633 1475.26,182.006 1494.99,196.629 1524.58,216.501 1554.16,234.817 1583.75,252.167 1623.2,274.364 1672.52,301.219 1731.7,332.741 1889.5,415.394 2293.87,625.682 "/>
<polyline clip-path="url(#clip442)" style="stroke:#009af9; stroke-linecap:round; stroke-linejoin:round; stroke-width:4; stroke-opacity:0.25; fill:none" points="331.177,148.935 765.141,148.902 932.808,148.698 991.985,148.458 1041.3,148.081 1080.75,147.571 1120.2,146.749 1149.79,145.81 1179.38,144.449 1199.1,143.207 1208.97,142.454 1218.83,141.594 1228.69,140.61 1238.56,139.48 1248.42,138.179 1258.28,136.675 1268.14,134.93 1278.01,132.894 1287.87,130.503 1297.73,127.677 1307.59,124.307 1317.46,120.252 1327.32,115.319 1337.18,109.263 1347.05,101.821 1356.91,92.9833 1366.77,84.2338 1376.63,81.2868 1386.5,89.4227 1396.36,103.311 1406.22,117.268 1416.09,129.826 1425.95,141.001 1435.81,151.054 1445.67,160.23 1455.54,168.722 1475.26,184.186 1494.99,198.216 1524.58,217.525 1554.16,235.499 1583.75,252.629 1623.2,274.645 1672.52,301.373 1731.7,332.817 1889.5,415.406 2293.87,625.682 "/>
<polyline clip-path="url(#clip442)" style="stroke:#009af9; stroke-linecap:round; stroke-linejoin:round; stroke-width:4; stroke-opacity:0.25; fill:none" points="331.177,144.362 765.141,144.325 932.808,144.099 991.985,143.834 1041.3,143.416 1080.75,142.851 1120.2,141.938 1149.79,140.894 1179.38,139.377 1199.1,137.988 1208.97,137.144 1218.83,136.178 1228.69,135.07 1238.56,133.795 1248.42,132.323 1258.28,130.616 1268.14,128.627 1278.01,126.296 1287.87,123.546 1297.73,120.276 1307.59,116.353 1317.46,111.604 1327.32,105.811 1337.18,98.7522 1347.05,90.449 1356.91,82.1907 1366.77,78.7857 1376.63,85.4263 1386.5,98.3414 1396.36,111.948 1406.22,124.413 1416.09,135.581 1425.95,145.655 1435.81,154.861 1445.67,163.382 1455.54,171.358 1475.26,186.077 1494.99,199.608 1524.58,218.434 1554.16,236.108 1583.75,253.045 1623.2,274.898 1672.52,301.511 1731.7,332.885 1889.5,415.416 2293.87,625.683 "/>
<polyline clip-path="url(#clip442)" style="stroke:#009af9; stroke-linecap:round; stroke-linejoin:round; stroke-width:4; stroke-opacity:0.25; fill:none" points="331.177,135.351 765.141,135.307 932.808,135.031 991.985,134.708 1041.3,134.197 1080.75,133.505 1120.2,132.383 1149.79,131.095 1179.38,129.212 1199.1,127.477 1208.97,126.417 1218.83,125.199 1228.69,123.795 1238.56,122.171 1248.42,120.284 1258.28,118.08 1268.14,115.491 1278.01,112.428 1287.87,108.781 1297.73,104.407 1307.59,99.1378 1317.46,92.8196 1327.32,85.509 1337.18,78.166 1347.05,74.1476 1356.91,78.0527 1366.77,88.7545 1376.63,101.427 1386.5,113.597 1396.36,124.71 1406.22,134.813 1416.09,144.073 1425.95,152.654 1435.81,160.686 1445.67,168.276 1455.54,175.502 1475.26,189.108 1494.99,201.871 1524.58,219.932 1554.16,237.121 1583.75,253.739 1623.2,275.324 1672.52,301.746 1731.7,333.001 1889.5,415.434 2293.87,625.683 "/>
<polyline clip-path="url(#clip442)" style="stroke:#009af9; stroke-linecap:round; stroke-linejoin:round; stroke-width:4; stroke-opacity:0.25; fill:none" points="331.177,117.961 765.141,117.897 932.808,117.494 991.985,117.021 1041.3,116.272 1080.75,115.249 1120.2,113.581 1149.79,111.645 1179.38,108.776 1199.1,106.091 1208.97,104.432 1218.83,102.508 1228.69,100.269 1238.56,97.652 1248.42,94.5795 1258.28,90.9617 1268.14,86.7028 1278.01,81.7342 1287.87,76.1216 1297.73,70.3665 1307.59,66.027 1317.46,65.9148 1327.32,71.6524 1337.18,81.3509 1347.05,92.2622 1356.91,102.953 1366.77,112.983 1376.63,122.306 1386.5,130.996 1396.36,139.15 1406.22,146.856 1416.09,154.19 1425.95,161.214 1435.81,167.977 1445.67,174.522 1455.54,180.88 1475.26,193.145 1494.99,204.941 1524.58,222.003 1554.16,238.539 1583.75,254.72 1623.2,275.929 1672.52,302.08 1731.7,333.167 1889.5,415.46 2293.87,625.683 "/>
<polyline clip-path="url(#clip442)" style="stroke:#009af9; stroke-linecap:round; stroke-linejoin:round; stroke-width:4; stroke-opacity:0.25; fill:none" points="331.177,117.056 765.141,116.99 932.808,116.579 991.985,116.097 1041.3,115.332 1080.75,114.289 1120.2,112.586 1149.79,110.608 1179.38,107.675 1199.1,104.928 1208.97,103.23 1218.83,101.26 1228.69,98.966 1238.56,96.2838 1248.42,93.1351 1258.28,89.43 1268.14,85.0774 1278.01,80.027 1287.87,74.3997 1297.73,68.8366 1307.59,65.1258 1317.46,66.059 1327.32,72.6364 1337.18,82.6119 1347.05,93.4665 1356.91,104 1366.77,113.866 1376.63,123.047 1386.5,131.619 1396.36,139.676 1406.22,147.303 1416.09,154.572 1425.95,161.542 1435.81,168.26 1445.67,174.767 1455.54,181.093 1475.26,193.307 1494.99,205.065 1524.58,222.088 1554.16,238.598 1583.75,254.76 1623.2,275.955 1672.52,302.094 1731.7,333.174 1889.5,415.461 2293.87,625.683 "/>
<polyline clip-path="url(#clip442)" style="stroke:#009af9; stroke-linecap:round; stroke-linejoin:round; stroke-width:4; stroke-opacity:0.25; fill:none" points="331.177,127.05 765.141,126.997 932.808,126.666 991.985,126.278 1041.3,125.665 1080.75,124.83 1120.2,123.474 1149.79,121.91 1179.38,119.609 1199.1,117.474 1208.97,116.162 1218.83,114.649 1228.69,112.896 1238.56,110.857 1248.42,108.473 1258.28,105.671 1268.14,102.359 1278.01,98.423 1287.87,93.7341 1297.73,88.1793 1307.59,81.7907 1317.46,75.1647 1327.32,70.4157 1337.18,71.3176 1347.05,79.0837 1356.91,90.3767 1366.77,102.137 1376.63,113.22 1386.5,123.419 1396.36,132.807 1406.22,141.514 1416.09,149.661 1425.95,157.351 1435.81,164.665 1445.67,171.668 1455.54,178.411 1475.26,191.278 1494.99,203.513 1524.58,221.034 1554.16,237.873 1583.75,254.258 1623.2,275.644 1672.52,301.922 1731.7,333.088 1889.5,415.448 2293.87,625.683 "/>
<polyline clip-path="url(#clip442)" style="stroke:#009af9; stroke-linecap:round; stroke-linejoin:round; stroke-width:4; stroke-opacity:0.25; fill:none" points="331.177,121.823 765.141,121.764 932.808,121.394 991.985,120.959 1041.3,120.27 1080.75,119.332 1120.2,117.804 1149.79,116.036 1179.38,113.424 1199.1,110.988 1208.97,109.487 1218.83,107.75 1228.69,105.732 1238.56,103.377 1248.42,100.615 1258.28,97.3612 1268.14,93.5133 1278.01,88.9621 1287.87,83.6316 1297.73,77.6167 1307.59,71.5844 1317.46,67.5555 1327.32,68.7605 1337.18,76.1104 1347.05,86.7851 1356.91,98.0715 1366.77,108.844 1376.63,118.84 1386.5,128.094 1396.36,136.708 1406.22,144.789 1416.09,152.43 1425.95,159.707 1435.81,166.681 1445.67,173.401 1455.54,179.909 1475.26,192.407 1494.99,204.375 1524.58,221.618 1554.16,238.274 1583.75,254.535 1623.2,275.815 1672.52,302.017 1731.7,333.135 1889.5,415.455 2293.87,625.683 "/>
<polyline clip-path="url(#clip442)" style="stroke:#009af9; stroke-linecap:round; stroke-linejoin:round; stroke-width:4; stroke-opacity:0.25; fill:none" points="331.177,123.437 765.141,123.38 932.808,123.022 991.985,122.602 1041.3,121.938 1080.75,121.033 1120.2,119.561 1149.79,117.858 1179.38,115.346 1199.1,113.008 1208.97,111.568 1218.83,109.903 1228.69,107.971 1238.56,105.718 1248.42,103.079 1258.28,99.9705 1268.14,96.2928 1278.01,91.9317 1287.87,86.783 1297.73,80.8466 1307.59,74.5224 1317.46,69.3333 1327.32,68.4732 1337.18,74.1816 1347.05,84.3794 1356.91,95.8236 1366.77,106.917 1376.63,117.23 1386.5,126.751 1396.36,135.583 1406.22,143.841 1416.09,151.626 1425.95,159.021 1435.81,166.093 1445.67,172.894 1455.54,179.47 1475.26,192.076 1494.99,204.121 1524.58,221.446 1554.16,238.155 1583.75,254.453 1623.2,275.765 1672.52,301.989 1731.7,333.121 1889.5,415.453 2293.87,625.683 "/>
<polyline clip-path="url(#clip442)" style="stroke:#009af9; stroke-linecap:round; stroke-linejoin:round; stroke-width:4; stroke-opacity:0.25; fill:none" points="331.177,119.068 765.141,119.005 932.808,118.612 991.985,118.15 1041.3,117.419 1080.75,116.421 1120.2,114.795 1149.79,112.908 1179.38,110.115 1199.1,107.504 1208.97,105.892 1218.83,104.024 1228.69,101.85 1238.56,99.3106 1248.42,96.3297 1258.28,92.818 1268.14,88.6759 1278.01,83.8179 1287.87,78.2551 1297.73,72.3423 1307.59,67.3565 1317.46,66.0012 1327.32,70.5753 1337.18,79.8097 1347.05,90.746 1356.91,101.625 1366.77,111.86 1376.63,121.365 1386.5,130.206 1396.36,138.483 1406.22,146.291 1416.09,153.708 1425.95,160.8 1435.81,167.621 1445.67,174.213 1455.54,180.612 1475.26,192.941 1494.99,204.784 1524.58,221.897 1554.16,238.465 1583.75,254.668 1623.2,275.898 1672.52,302.063 1731.7,333.158 1889.5,415.459 2293.87,625.683 "/>
<polyline clip-path="url(#clip442)" style="stroke:#009af9; stroke-linecap:round; stroke-linejoin:round; stroke-width:4; stroke-opacity:0.25; fill:none" points="331.177,131.062 765.141,131.014 932.808,130.711 991.985,130.355 1041.3,129.794 1080.75,129.031 1120.2,127.794 1149.79,126.37 1179.38,124.282 1199.1,122.351 1208.97,121.168 1218.83,119.806 1228.69,118.232 1238.56,116.407 1248.42,114.278 1258.28,111.783 1268.14,108.842 1278.01,105.352 1287.87,101.185 1297.73,96.1954 1307.59,90.2527 1317.46,83.4095 1327.32,76.4514 1337.18,72.1024 1347.05,74.5833 1356.91,83.9592 1366.77,96.0263 1376.63,108.01 1386.5,119.099 1396.36,129.234 1406.22,138.541 1416.09,147.17 1425.95,155.248 1435.81,162.877 1445.67,170.138 1455.54,177.096 1475.26,190.293 1494.99,202.765 1524.58,220.53 1554.16,237.528 1583.75,254.02 1623.2,275.497 1672.52,301.841 1731.7,333.048 1889.5,415.442 2293.87,625.683 "/>
<path clip-path="url(#clip440)" d="M1250.78 622.688 L2283.41 622.688 L2283.41 519.008 L1250.78 519.008  Z" fill="#ffffff" fill-rule="evenodd" fill-opacity="1"/>
<polyline clip-path="url(#clip440)" style="stroke:#000000; stroke-linecap:round; stroke-linejoin:round; stroke-width:4; stroke-opacity:1; fill:none" points="1250.78,622.688 2283.41,622.688 2283.41,519.008 1250.78,519.008 1250.78,622.688 "/>
<polyline clip-path="url(#clip440)" style="stroke:#009af9; stroke-linecap:round; stroke-linejoin:round; stroke-width:4; stroke-opacity:1; fill:none" points="1273.9,570.848 1412.6,570.848 "/>
<path clip-path="url(#clip440)" d="M1435.71 553.568 L1442.68 553.568 L1451.5 577.086 L1460.36 553.568 L1467.33 553.568 L1467.33 588.128 L1462.77 588.128 L1462.77 557.781 L1453.86 581.484 L1449.16 581.484 L1440.25 557.781 L1440.25 588.128 L1435.71 588.128 L1435.71 553.568 Z" fill="#000000" fill-rule="nonzero" fill-opacity="1" /><path clip-path="url(#clip440)" d="M1498.61 574.1 L1498.61 576.183 L1479.02 576.183 Q1479.3 580.582 1481.66 582.896 Q1484.05 585.188 1488.28 585.188 Q1490.73 585.188 1493.03 584.586 Q1495.34 583.984 1497.61 582.781 L1497.61 586.808 Q1495.32 587.781 1492.91 588.29 Q1490.5 588.799 1488.03 588.799 Q1481.82 588.799 1478.19 585.188 Q1474.58 581.577 1474.58 575.42 Q1474.58 569.054 1478 565.327 Q1481.45 561.577 1487.29 561.577 Q1492.52 561.577 1495.55 564.957 Q1498.61 568.313 1498.61 574.1 M1494.35 572.85 Q1494.3 569.355 1492.38 567.271 Q1490.48 565.188 1487.33 565.188 Q1483.77 565.188 1481.61 567.202 Q1479.49 569.216 1479.16 572.873 L1494.35 572.85 Z" fill="#000000" fill-rule="nonzero" fill-opacity="1" /><path clip-path="url(#clip440)" d="M1517.38 575.095 Q1512.22 575.095 1510.23 576.276 Q1508.23 577.457 1508.23 580.304 Q1508.23 582.572 1509.72 583.915 Q1511.22 585.234 1513.79 585.234 Q1517.33 585.234 1519.46 582.734 Q1521.61 580.211 1521.61 576.045 L1521.61 575.095 L1517.38 575.095 M1525.87 573.336 L1525.87 588.128 L1521.61 588.128 L1521.61 584.193 Q1520.16 586.554 1517.98 587.688 Q1515.8 588.799 1512.66 588.799 Q1508.67 588.799 1506.31 586.577 Q1503.98 584.331 1503.98 580.582 Q1503.98 576.207 1506.89 573.984 Q1509.83 571.762 1515.64 571.762 L1521.61 571.762 L1521.61 571.345 Q1521.61 568.406 1519.67 566.808 Q1517.75 565.188 1514.25 565.188 Q1512.03 565.188 1509.92 565.72 Q1507.82 566.253 1505.87 567.318 L1505.87 563.383 Q1508.21 562.48 1510.41 562.04 Q1512.61 561.577 1514.69 561.577 Q1520.32 561.577 1523.1 564.494 Q1525.87 567.41 1525.87 573.336 Z" fill="#000000" fill-rule="nonzero" fill-opacity="1" /><path clip-path="url(#clip440)" d="M1556.2 572.48 L1556.2 588.128 L1551.94 588.128 L1551.94 572.619 Q1551.94 568.938 1550.5 567.109 Q1549.07 565.281 1546.2 565.281 Q1542.75 565.281 1540.76 567.48 Q1538.77 569.679 1538.77 573.475 L1538.77 588.128 L1534.48 588.128 L1534.48 562.202 L1538.77 562.202 L1538.77 566.23 Q1540.29 563.892 1542.36 562.734 Q1544.44 561.577 1547.15 561.577 Q1551.61 561.577 1553.91 564.355 Q1556.2 567.109 1556.2 572.48 Z" fill="#000000" fill-rule="nonzero" fill-opacity="1" /><path clip-path="url(#clip440)" d="M1577.29 562.202 L1581.54 562.202 L1586.87 582.433 L1592.17 562.202 L1597.19 562.202 L1602.52 582.433 L1607.82 562.202 L1612.08 562.202 L1605.29 588.128 L1600.27 588.128 L1594.69 566.878 L1589.09 588.128 L1584.07 588.128 L1577.29 562.202 Z" fill="#000000" fill-rule="nonzero" fill-opacity="1" /><path clip-path="url(#clip440)" d="M1618.54 562.202 L1622.79 562.202 L1622.79 588.128 L1618.54 588.128 L1618.54 562.202 M1618.54 552.109 L1622.79 552.109 L1622.79 557.503 L1618.54 557.503 L1618.54 552.109 Z" fill="#000000" fill-rule="nonzero" fill-opacity="1" /><path clip-path="url(#clip440)" d="M1635.92 554.841 L1635.92 562.202 L1644.69 562.202 L1644.69 565.512 L1635.92 565.512 L1635.92 579.586 Q1635.92 582.757 1636.78 583.66 Q1637.66 584.563 1640.32 584.563 L1644.69 584.563 L1644.69 588.128 L1640.32 588.128 Q1635.39 588.128 1633.51 586.299 Q1631.64 584.447 1631.64 579.586 L1631.64 565.512 L1628.51 565.512 L1628.51 562.202 L1631.64 562.202 L1631.64 554.841 L1635.92 554.841 Z" fill="#000000" fill-rule="nonzero" fill-opacity="1" /><path clip-path="url(#clip440)" d="M1671.85 572.48 L1671.85 588.128 L1667.59 588.128 L1667.59 572.619 Q1667.59 568.938 1666.15 567.109 Q1664.72 565.281 1661.85 565.281 Q1658.4 565.281 1656.41 567.48 Q1654.41 569.679 1654.41 573.475 L1654.41 588.128 L1650.13 588.128 L1650.13 552.109 L1654.41 552.109 L1654.41 566.23 Q1655.94 563.892 1658 562.734 Q1660.09 561.577 1662.79 561.577 Q1667.26 561.577 1669.55 564.355 Q1671.85 567.109 1671.85 572.48 Z" fill="#000000" fill-rule="nonzero" fill-opacity="1" /><path clip-path="url(#clip440)" d="M1705.64 552.156 Q1702.54 557.48 1701.03 562.688 Q1699.53 567.896 1699.53 573.244 Q1699.53 578.591 1701.03 583.845 Q1702.56 589.077 1705.64 594.378 L1701.94 594.378 Q1698.47 588.938 1696.73 583.683 Q1695.02 578.429 1695.02 573.244 Q1695.02 568.082 1696.73 562.85 Q1698.44 557.619 1701.94 552.156 L1705.64 552.156 Z" fill="#000000" fill-rule="nonzero" fill-opacity="1" /><path clip-path="url(#clip440)" d="M1724.51 556.646 Q1720.9 556.646 1719.07 560.211 Q1717.26 563.753 1717.26 570.882 Q1717.26 577.989 1719.07 581.554 Q1720.9 585.095 1724.51 585.095 Q1728.14 585.095 1729.95 581.554 Q1731.78 577.989 1731.78 570.882 Q1731.78 563.753 1729.95 560.211 Q1728.14 556.646 1724.51 556.646 M1724.51 552.943 Q1730.32 552.943 1733.37 557.549 Q1736.45 562.133 1736.45 570.882 Q1736.45 579.609 1733.37 584.216 Q1730.32 588.799 1724.51 588.799 Q1718.7 588.799 1715.62 584.216 Q1712.56 579.609 1712.56 570.882 Q1712.56 562.133 1715.62 557.549 Q1718.7 552.943 1724.51 552.943 Z" fill="#000000" fill-rule="nonzero" fill-opacity="1" /><path clip-path="url(#clip440)" d="M1744.67 582.248 L1749.55 582.248 L1749.55 588.128 L1744.67 588.128 L1744.67 582.248 Z" fill="#000000" fill-rule="nonzero" fill-opacity="1" /><path clip-path="url(#clip440)" d="M1769.74 556.646 Q1766.13 556.646 1764.3 560.211 Q1762.49 563.753 1762.49 570.882 Q1762.49 577.989 1764.3 581.554 Q1766.13 585.095 1769.74 585.095 Q1773.37 585.095 1775.18 581.554 Q1777.01 577.989 1777.01 570.882 Q1777.01 563.753 1775.18 560.211 Q1773.37 556.646 1769.74 556.646 M1769.74 552.943 Q1775.55 552.943 1778.6 557.549 Q1781.68 562.133 1781.68 570.882 Q1781.68 579.609 1778.6 584.216 Q1775.55 588.799 1769.74 588.799 Q1763.93 588.799 1760.85 584.216 Q1757.79 579.609 1757.79 570.882 Q1757.79 562.133 1760.85 557.549 Q1763.93 552.943 1769.74 552.943 Z" fill="#000000" fill-rule="nonzero" fill-opacity="1" /><path clip-path="url(#clip440)" d="M1793.93 584.193 L1810.25 584.193 L1810.25 588.128 L1788.3 588.128 L1788.3 584.193 Q1790.96 581.438 1795.55 576.808 Q1800.15 572.156 1801.34 570.813 Q1803.58 568.29 1804.46 566.554 Q1805.36 564.795 1805.36 563.105 Q1805.36 560.35 1803.42 558.614 Q1801.5 556.878 1798.4 556.878 Q1796.2 556.878 1793.74 557.642 Q1791.31 558.406 1788.53 559.957 L1788.53 555.234 Q1791.36 554.1 1793.81 553.521 Q1796.27 552.943 1798.3 552.943 Q1803.67 552.943 1806.87 555.628 Q1810.06 558.313 1810.06 562.804 Q1810.06 564.933 1809.25 566.855 Q1808.46 568.753 1806.36 571.345 Q1805.78 572.017 1802.68 575.234 Q1799.58 578.429 1793.93 584.193 Z" fill="#000000" fill-rule="nonzero" fill-opacity="1" /><path clip-path="url(#clip440)" d="M1820.11 553.568 L1838.46 553.568 L1838.46 557.503 L1824.39 557.503 L1824.39 565.975 Q1825.41 565.628 1826.43 565.466 Q1827.45 565.281 1828.46 565.281 Q1834.25 565.281 1837.63 568.452 Q1841.01 571.623 1841.01 577.04 Q1841.01 582.619 1837.54 585.72 Q1834.07 588.799 1827.75 588.799 Q1825.57 588.799 1823.3 588.429 Q1821.06 588.058 1818.65 587.318 L1818.65 582.619 Q1820.73 583.753 1822.96 584.308 Q1825.18 584.864 1827.65 584.864 Q1831.66 584.864 1834 582.757 Q1836.33 580.651 1836.33 577.04 Q1836.33 573.429 1834 571.322 Q1831.66 569.216 1827.65 569.216 Q1825.78 569.216 1823.9 569.633 Q1822.05 570.049 1820.11 570.929 L1820.11 553.568 Z" fill="#000000" fill-rule="nonzero" fill-opacity="1" /><path clip-path="url(#clip440)" d="M1850.71 582.248 L1855.59 582.248 L1855.59 586.23 L1851.8 593.637 L1848.81 593.637 L1850.71 586.23 L1850.71 582.248 Z" fill="#000000" fill-rule="nonzero" fill-opacity="1" /><path clip-path="url(#clip440)" d="M1890.36 556.646 Q1886.75 556.646 1884.92 560.211 Q1883.12 563.753 1883.12 570.882 Q1883.12 577.989 1884.92 581.554 Q1886.75 585.095 1890.36 585.095 Q1894 585.095 1895.8 581.554 Q1897.63 577.989 1897.63 570.882 Q1897.63 563.753 1895.8 560.211 Q1894 556.646 1890.36 556.646 M1890.36 552.943 Q1896.17 552.943 1899.23 557.549 Q1902.31 562.133 1902.31 570.882 Q1902.31 579.609 1899.23 584.216 Q1896.17 588.799 1890.36 588.799 Q1884.55 588.799 1881.47 584.216 Q1878.42 579.609 1878.42 570.882 Q1878.42 562.133 1881.47 557.549 Q1884.55 552.943 1890.36 552.943 Z" fill="#000000" fill-rule="nonzero" fill-opacity="1" /><path clip-path="url(#clip440)" d="M1910.52 582.248 L1915.41 582.248 L1915.41 588.128 L1910.52 588.128 L1910.52 582.248 Z" fill="#000000" fill-rule="nonzero" fill-opacity="1" /><path clip-path="url(#clip440)" d="M1925.73 587.41 L1925.73 583.151 Q1927.49 583.984 1929.3 584.424 Q1931.1 584.864 1932.84 584.864 Q1937.47 584.864 1939.9 581.762 Q1942.35 578.637 1942.7 572.295 Q1941.36 574.285 1939.3 575.35 Q1937.24 576.415 1934.74 576.415 Q1929.55 576.415 1926.52 573.29 Q1923.51 570.142 1923.51 564.702 Q1923.51 559.378 1926.66 556.16 Q1929.81 552.943 1935.04 552.943 Q1941.03 552.943 1944.18 557.549 Q1947.35 562.133 1947.35 570.882 Q1947.35 579.054 1943.46 583.938 Q1939.6 588.799 1933.05 588.799 Q1931.29 588.799 1929.48 588.452 Q1927.68 588.105 1925.73 587.41 M1935.04 572.757 Q1938.19 572.757 1940.01 570.605 Q1941.87 568.452 1941.87 564.702 Q1941.87 560.975 1940.01 558.822 Q1938.19 556.646 1935.04 556.646 Q1931.89 556.646 1930.04 558.822 Q1928.21 560.975 1928.21 564.702 Q1928.21 568.452 1930.04 570.605 Q1931.89 572.757 1935.04 572.757 Z" fill="#000000" fill-rule="nonzero" fill-opacity="1" /><path clip-path="url(#clip440)" d="M1954.58 553.568 L1976.8 553.568 L1976.8 555.559 L1964.25 588.128 L1959.37 588.128 L1971.17 557.503 L1954.58 557.503 L1954.58 553.568 Z" fill="#000000" fill-rule="nonzero" fill-opacity="1" /><path clip-path="url(#clip440)" d="M1985.96 553.568 L2004.32 553.568 L2004.32 557.503 L1990.25 557.503 L1990.25 565.975 Q1991.26 565.628 1992.28 565.466 Q1993.3 565.281 1994.32 565.281 Q2000.11 565.281 2003.49 568.452 Q2006.87 571.623 2006.87 577.04 Q2006.87 582.619 2003.39 585.72 Q1999.92 588.799 1993.6 588.799 Q1991.43 588.799 1989.16 588.429 Q1986.91 588.058 1984.51 587.318 L1984.51 582.619 Q1986.59 583.753 1988.81 584.308 Q1991.03 584.864 1993.51 584.864 Q1997.51 584.864 1999.85 582.757 Q2002.19 580.651 2002.19 577.04 Q2002.19 573.429 1999.85 571.322 Q1997.51 569.216 1993.51 569.216 Q1991.64 569.216 1989.76 569.633 Q1987.91 570.049 1985.96 570.929 L1985.96 553.568 Z" fill="#000000" fill-rule="nonzero" fill-opacity="1" /><path clip-path="url(#clip440)" d="M2014.81 552.156 L2018.51 552.156 Q2021.98 557.619 2023.7 562.85 Q2025.43 568.082 2025.43 573.244 Q2025.43 578.429 2023.7 583.683 Q2021.98 588.938 2018.51 594.378 L2014.81 594.378 Q2017.88 589.077 2019.39 583.845 Q2020.92 578.591 2020.92 573.244 Q2020.92 567.896 2019.39 562.688 Q2017.88 557.48 2014.81 552.156 Z" fill="#000000" fill-rule="nonzero" fill-opacity="1" /><path clip-path="url(#clip440)" d="M2051.59 575.188 Q2051.59 579.887 2053.51 582.572 Q2055.45 585.234 2058.83 585.234 Q2062.21 585.234 2064.16 582.572 Q2066.1 579.887 2066.1 575.188 Q2066.1 570.489 2064.16 567.827 Q2062.21 565.142 2058.83 565.142 Q2055.45 565.142 2053.51 567.827 Q2051.59 570.489 2051.59 575.188 M2066.1 584.239 Q2064.76 586.554 2062.7 587.688 Q2060.66 588.799 2057.79 588.799 Q2053.09 588.799 2050.13 585.049 Q2047.19 581.299 2047.19 575.188 Q2047.19 569.077 2050.13 565.327 Q2053.09 561.577 2057.79 561.577 Q2060.66 561.577 2062.7 562.711 Q2064.76 563.822 2066.1 566.137 L2066.1 562.202 L2070.36 562.202 L2070.36 597.989 L2066.1 597.989 L2066.1 584.239 Z" fill="#000000" fill-rule="nonzero" fill-opacity="1" /><path clip-path="url(#clip440)" d="M2078.69 577.896 L2078.69 562.202 L2082.95 562.202 L2082.95 577.734 Q2082.95 581.415 2084.39 583.267 Q2085.82 585.095 2088.69 585.095 Q2092.14 585.095 2094.13 582.896 Q2096.15 580.697 2096.15 576.901 L2096.15 562.202 L2100.41 562.202 L2100.41 588.128 L2096.15 588.128 L2096.15 584.146 Q2094.6 586.507 2092.54 587.665 Q2090.5 588.799 2087.79 588.799 Q2083.32 588.799 2081.01 586.021 Q2078.69 583.244 2078.69 577.896 M2089.41 561.577 L2089.41 561.577 Z" fill="#000000" fill-rule="nonzero" fill-opacity="1" /><path clip-path="url(#clip440)" d="M2120.96 575.095 Q2115.8 575.095 2113.81 576.276 Q2111.82 577.457 2111.82 580.304 Q2111.82 582.572 2113.3 583.915 Q2114.81 585.234 2117.38 585.234 Q2120.92 585.234 2123.05 582.734 Q2125.2 580.211 2125.2 576.045 L2125.2 575.095 L2120.96 575.095 M2129.46 573.336 L2129.46 588.128 L2125.2 588.128 L2125.2 584.193 Q2123.74 586.554 2121.56 587.688 Q2119.39 588.799 2116.24 588.799 Q2112.26 588.799 2109.9 586.577 Q2107.56 584.331 2107.56 580.582 Q2107.56 576.207 2110.48 573.984 Q2113.42 571.762 2119.23 571.762 L2125.2 571.762 L2125.2 571.345 Q2125.2 568.406 2123.25 566.808 Q2121.33 565.188 2117.84 565.188 Q2115.62 565.188 2113.51 565.72 Q2111.4 566.253 2109.46 567.318 L2109.46 563.383 Q2111.8 562.48 2114 562.04 Q2116.19 561.577 2118.28 561.577 Q2123.9 561.577 2126.68 564.494 Q2129.46 567.41 2129.46 573.336 Z" fill="#000000" fill-rule="nonzero" fill-opacity="1" /><path clip-path="url(#clip440)" d="M2159.78 572.48 L2159.78 588.128 L2155.52 588.128 L2155.52 572.619 Q2155.52 568.938 2154.09 567.109 Q2152.65 565.281 2149.78 565.281 Q2146.33 565.281 2144.34 567.48 Q2142.35 569.679 2142.35 573.475 L2142.35 588.128 L2138.07 588.128 L2138.07 562.202 L2142.35 562.202 L2142.35 566.23 Q2143.88 563.892 2145.94 562.734 Q2148.02 561.577 2150.73 561.577 Q2155.2 561.577 2157.49 564.355 Q2159.78 567.109 2159.78 572.48 Z" fill="#000000" fill-rule="nonzero" fill-opacity="1" /><path clip-path="url(#clip440)" d="M2172.49 554.841 L2172.49 562.202 L2181.26 562.202 L2181.26 565.512 L2172.49 565.512 L2172.49 579.586 Q2172.49 582.757 2173.35 583.66 Q2174.23 584.563 2176.89 584.563 L2181.26 584.563 L2181.26 588.128 L2176.89 588.128 Q2171.96 588.128 2170.08 586.299 Q2168.21 584.447 2168.21 579.586 L2168.21 565.512 L2165.08 565.512 L2165.08 562.202 L2168.21 562.202 L2168.21 554.841 L2172.49 554.841 Z" fill="#000000" fill-rule="nonzero" fill-opacity="1" /><path clip-path="url(#clip440)" d="M2186.87 562.202 L2191.12 562.202 L2191.12 588.128 L2186.87 588.128 L2186.87 562.202 M2186.87 552.109 L2191.12 552.109 L2191.12 557.503 L2186.87 557.503 L2186.87 552.109 Z" fill="#000000" fill-rule="nonzero" fill-opacity="1" /><path clip-path="url(#clip440)" d="M2200.04 552.109 L2204.3 552.109 L2204.3 588.128 L2200.04 588.128 L2200.04 552.109 Z" fill="#000000" fill-rule="nonzero" fill-opacity="1" /><path clip-path="url(#clip440)" d="M2235.38 574.1 L2235.38 576.183 L2215.8 576.183 Q2216.08 580.582 2218.44 582.896 Q2220.82 585.188 2225.06 585.188 Q2227.51 585.188 2229.81 584.586 Q2232.12 583.984 2234.39 582.781 L2234.39 586.808 Q2232.1 587.781 2229.69 588.29 Q2227.28 588.799 2224.81 588.799 Q2218.6 588.799 2214.97 585.188 Q2211.36 581.577 2211.36 575.42 Q2211.36 569.054 2214.78 565.327 Q2218.23 561.577 2224.06 561.577 Q2229.3 561.577 2232.33 564.957 Q2235.38 568.313 2235.38 574.1 M2231.12 572.85 Q2231.08 569.355 2229.16 567.271 Q2227.26 565.188 2224.11 565.188 Q2220.55 565.188 2218.39 567.202 Q2216.26 569.216 2215.94 572.873 L2231.12 572.85 Z" fill="#000000" fill-rule="nonzero" fill-opacity="1" /><path clip-path="url(#clip440)" d="M2258.9 562.966 L2258.9 566.994 Q2257.1 566.068 2255.15 565.605 Q2253.21 565.142 2251.12 565.142 Q2247.95 565.142 2246.36 566.114 Q2244.78 567.086 2244.78 569.031 Q2244.78 570.512 2245.92 571.369 Q2247.05 572.202 2250.48 572.966 L2251.93 573.29 Q2256.47 574.262 2258.37 576.045 Q2260.29 577.804 2260.29 580.975 Q2260.29 584.586 2257.42 586.693 Q2254.57 588.799 2249.57 588.799 Q2247.49 588.799 2245.22 588.382 Q2242.98 587.989 2240.48 587.179 L2240.48 582.781 Q2242.84 584.007 2245.13 584.632 Q2247.42 585.234 2249.67 585.234 Q2252.68 585.234 2254.3 584.216 Q2255.92 583.174 2255.92 581.299 Q2255.92 579.563 2254.74 578.637 Q2253.58 577.711 2249.62 576.855 L2248.14 576.507 Q2244.18 575.674 2242.42 573.961 Q2240.66 572.225 2240.66 569.216 Q2240.66 565.558 2243.25 563.568 Q2245.85 561.577 2250.62 561.577 Q2252.98 561.577 2255.06 561.924 Q2257.14 562.271 2258.9 562.966 Z" fill="#000000" fill-rule="nonzero" fill-opacity="1" /><path clip-path="url(#clip440)" d="M272.297 1410.9 L2352.76 1410.9 L2352.76 815.61 L272.297 815.61  Z" fill="#ffffff" fill-rule="evenodd" fill-opacity="1"/>
<defs>
  <clipPath id="clip443">
    <rect x="272" y="815" width="2081" height="596"/>
  </clipPath>
</defs>
<polyline clip-path="url(#clip443)" style="stroke:#000000; stroke-linecap:round; stroke-linejoin:round; stroke-width:2; stroke-opacity:0.1; fill:none" points="1116.26,1410.9 1116.26,815.61 "/>
<polyline clip-path="url(#clip443)" style="stroke:#000000; stroke-linecap:round; stroke-linejoin:round; stroke-width:2; stroke-opacity:0.1; fill:none" points="2293.87,1410.9 2293.87,815.61 "/>
<polyline clip-path="url(#clip443)" style="stroke:#000000; stroke-linecap:round; stroke-linejoin:round; stroke-width:2; stroke-opacity:0.1; fill:none" points="272.297,1300.59 2352.76,1300.59 "/>
<polyline clip-path="url(#clip443)" style="stroke:#000000; stroke-linecap:round; stroke-linejoin:round; stroke-width:2; stroke-opacity:0.1; fill:none" points="272.297,1144.52 2352.76,1144.52 "/>
<polyline clip-path="url(#clip443)" style="stroke:#000000; stroke-linecap:round; stroke-linejoin:round; stroke-width:2; stroke-opacity:0.1; fill:none" points="272.297,988.45 2352.76,988.45 "/>
<polyline clip-path="url(#clip443)" style="stroke:#000000; stroke-linecap:round; stroke-linejoin:round; stroke-width:2; stroke-opacity:0.1; fill:none" points="272.297,832.382 2352.76,832.382 "/>
<polyline clip-path="url(#clip440)" style="stroke:#000000; stroke-linecap:round; stroke-linejoin:round; stroke-width:4; stroke-opacity:1; fill:none" points="272.297,1410.9 2352.76,1410.9 "/>
<polyline clip-path="url(#clip440)" style="stroke:#000000; stroke-linecap:round; stroke-linejoin:round; stroke-width:4; stroke-opacity:1; fill:none" points="1116.26,1410.9 1116.26,1392 "/>
<polyline clip-path="url(#clip440)" style="stroke:#000000; stroke-linecap:round; stroke-linejoin:round; stroke-width:4; stroke-opacity:1; fill:none" points="2293.87,1410.9 2293.87,1392 "/>
<path clip-path="url(#clip440)" d="M1081.24 1485.02 L1088.88 1485.02 L1088.88 1458.66 L1080.57 1460.32 L1080.57 1456.06 L1088.83 1454.4 L1093.51 1454.4 L1093.51 1485.02 L1101.15 1485.02 L1101.15 1488.96 L1081.24 1488.96 L1081.24 1485.02 Z" fill="#000000" fill-rule="nonzero" fill-opacity="1" /><path clip-path="url(#clip440)" d="M1120.59 1457.48 Q1116.98 1457.48 1115.15 1461.04 Q1113.35 1464.58 1113.35 1471.71 Q1113.35 1478.82 1115.15 1482.38 Q1116.98 1485.92 1120.59 1485.92 Q1124.23 1485.92 1126.03 1482.38 Q1127.86 1478.82 1127.86 1471.71 Q1127.86 1464.58 1126.03 1461.04 Q1124.23 1457.48 1120.59 1457.48 M1120.59 1453.77 Q1126.4 1453.77 1129.46 1458.38 Q1132.54 1462.96 1132.54 1471.71 Q1132.54 1480.44 1129.46 1485.04 Q1126.4 1489.63 1120.59 1489.63 Q1114.78 1489.63 1111.7 1485.04 Q1108.65 1480.44 1108.65 1471.71 Q1108.65 1462.96 1111.7 1458.38 Q1114.78 1453.77 1120.59 1453.77 Z" fill="#000000" fill-rule="nonzero" fill-opacity="1" /><path clip-path="url(#clip440)" d="M1142.24 1435.97 Q1139.31 1435.97 1137.82 1438.86 Q1136.35 1441.74 1136.35 1447.53 Q1136.35 1453.31 1137.82 1456.2 Q1139.31 1459.08 1142.24 1459.08 Q1145.19 1459.08 1146.66 1456.2 Q1148.15 1453.31 1148.15 1447.53 Q1148.15 1441.74 1146.66 1438.86 Q1145.19 1435.97 1142.24 1435.97 M1142.24 1432.96 Q1146.96 1432.96 1149.44 1436.7 Q1151.94 1440.43 1151.94 1447.53 Q1151.94 1454.62 1149.44 1458.37 Q1146.96 1462.09 1142.24 1462.09 Q1137.52 1462.09 1135.02 1458.37 Q1132.54 1454.62 1132.54 1447.53 Q1132.54 1440.43 1135.02 1436.7 Q1137.52 1432.96 1142.24 1432.96 Z" fill="#000000" fill-rule="nonzero" fill-opacity="1" /><path clip-path="url(#clip440)" d="M2259.32 1485.02 L2266.96 1485.02 L2266.96 1458.66 L2258.65 1460.32 L2258.65 1456.06 L2266.91 1454.4 L2271.59 1454.4 L2271.59 1485.02 L2279.23 1485.02 L2279.23 1488.96 L2259.32 1488.96 L2259.32 1485.02 Z" fill="#000000" fill-rule="nonzero" fill-opacity="1" /><path clip-path="url(#clip440)" d="M2298.67 1457.48 Q2295.06 1457.48 2293.23 1461.04 Q2291.42 1464.58 2291.42 1471.71 Q2291.42 1478.82 2293.23 1482.38 Q2295.06 1485.92 2298.67 1485.92 Q2302.3 1485.92 2304.11 1482.38 Q2305.94 1478.82 2305.94 1471.71 Q2305.94 1464.58 2304.11 1461.04 Q2302.3 1457.48 2298.67 1457.48 M2298.67 1453.77 Q2304.48 1453.77 2307.54 1458.38 Q2310.61 1462.96 2310.61 1471.71 Q2310.61 1480.44 2307.54 1485.04 Q2304.48 1489.63 2298.67 1489.63 Q2292.86 1489.63 2289.78 1485.04 Q2286.73 1480.44 2286.73 1471.71 Q2286.73 1462.96 2289.78 1458.38 Q2292.86 1453.77 2298.67 1453.77 Z" fill="#000000" fill-rule="nonzero" fill-opacity="1" /><path clip-path="url(#clip440)" d="M2323.31 1446.41 Q2326.04 1446.99 2327.56 1448.83 Q2329.1 1450.68 2329.1 1453.38 Q2329.1 1457.54 2326.24 1459.82 Q2323.39 1462.09 2318.12 1462.09 Q2316.35 1462.09 2314.47 1461.73 Q2312.61 1461.4 2310.61 1460.7 L2310.61 1457.03 Q2312.19 1457.95 2314.08 1458.42 Q2315.96 1458.89 2318.01 1458.89 Q2321.58 1458.89 2323.44 1457.48 Q2325.32 1456.07 2325.32 1453.38 Q2325.32 1450.9 2323.57 1449.51 Q2321.84 1448.1 2318.74 1448.1 L2315.47 1448.1 L2315.47 1444.98 L2318.89 1444.98 Q2321.69 1444.98 2323.18 1443.87 Q2324.66 1442.74 2324.66 1440.63 Q2324.66 1438.47 2323.12 1437.32 Q2321.6 1436.16 2318.74 1436.16 Q2317.18 1436.16 2315.39 1436.49 Q2313.61 1436.83 2311.46 1437.55 L2311.46 1434.16 Q2313.62 1433.56 2315.5 1433.26 Q2317.4 1432.96 2319.08 1432.96 Q2323.4 1432.96 2325.92 1434.93 Q2328.44 1436.89 2328.44 1440.24 Q2328.44 1442.57 2327.11 1444.19 Q2325.77 1445.79 2323.31 1446.41 Z" fill="#000000" fill-rule="nonzero" fill-opacity="1" /><path clip-path="url(#clip440)" d="M1032.34 1526.67 L1059.65 1526.67 L1059.65 1532.08 L1038.77 1532.08 L1038.77 1546.08 L1057.61 1546.08 L1057.61 1551.49 L1038.77 1551.49 L1038.77 1574.19 L1032.34 1574.19 L1032.34 1526.67 Z" fill="#000000" fill-rule="nonzero" fill-opacity="1" /><path clip-path="url(#clip440)" d="M1085.49 1544.01 Q1084.51 1543.44 1083.33 1543.18 Q1082.18 1542.9 1080.78 1542.9 Q1075.82 1542.9 1073.14 1546.14 Q1070.5 1549.36 1070.5 1555.41 L1070.5 1574.19 L1064.61 1574.19 L1064.61 1538.54 L1070.5 1538.54 L1070.5 1544.08 Q1072.35 1540.83 1075.31 1539.27 Q1078.27 1537.68 1082.5 1537.68 Q1083.11 1537.68 1083.84 1537.77 Q1084.57 1537.84 1085.46 1538 L1085.49 1544.01 Z" fill="#000000" fill-rule="nonzero" fill-opacity="1" /><path clip-path="url(#clip440)" d="M1120.7 1554.9 L1120.7 1557.76 L1093.77 1557.76 Q1094.15 1563.81 1097.4 1566.99 Q1100.68 1570.14 1106.5 1570.14 Q1109.87 1570.14 1113.02 1569.32 Q1116.21 1568.49 1119.33 1566.83 L1119.33 1572.37 Q1116.18 1573.71 1112.87 1574.41 Q1109.56 1575.11 1106.15 1575.11 Q1097.62 1575.11 1092.62 1570.14 Q1087.66 1565.18 1087.66 1556.71 Q1087.66 1547.96 1092.37 1542.83 Q1097.11 1537.68 1105.13 1537.68 Q1112.32 1537.68 1116.49 1542.33 Q1120.7 1546.94 1120.7 1554.9 M1114.84 1553.18 Q1114.78 1548.37 1112.13 1545.51 Q1109.52 1542.64 1105.2 1542.64 Q1100.29 1542.64 1097.33 1545.41 Q1094.41 1548.18 1093.96 1553.21 L1114.84 1553.18 Z" fill="#000000" fill-rule="nonzero" fill-opacity="1" /><path clip-path="url(#clip440)" d="M1133.81 1556.39 Q1133.81 1562.85 1136.45 1566.55 Q1139.12 1570.21 1143.77 1570.21 Q1148.42 1570.21 1151.09 1566.55 Q1153.77 1562.85 1153.77 1556.39 Q1153.77 1549.93 1151.09 1546.27 Q1148.42 1542.58 1143.77 1542.58 Q1139.12 1542.58 1136.45 1546.27 Q1133.81 1549.93 1133.81 1556.39 M1153.77 1568.84 Q1151.92 1572.02 1149.09 1573.58 Q1146.29 1575.11 1142.34 1575.11 Q1135.88 1575.11 1131.8 1569.95 Q1127.76 1564.8 1127.76 1556.39 Q1127.76 1547.99 1131.8 1542.83 Q1135.88 1537.68 1142.34 1537.68 Q1146.29 1537.68 1149.09 1539.24 Q1151.92 1540.77 1153.77 1543.95 L1153.77 1538.54 L1159.62 1538.54 L1159.62 1587.74 L1153.77 1587.74 L1153.77 1568.84 Z" fill="#000000" fill-rule="nonzero" fill-opacity="1" /><path clip-path="url(#clip440)" d="M1171.08 1560.12 L1171.08 1538.54 L1176.94 1538.54 L1176.94 1559.89 Q1176.94 1564.96 1178.91 1567.5 Q1180.88 1570.02 1184.83 1570.02 Q1189.57 1570.02 1192.31 1566.99 Q1195.08 1563.97 1195.08 1558.75 L1195.08 1538.54 L1200.94 1538.54 L1200.94 1574.19 L1195.08 1574.19 L1195.08 1568.71 Q1192.95 1571.96 1190.11 1573.55 Q1187.31 1575.11 1183.59 1575.11 Q1177.45 1575.11 1174.26 1571.29 Q1171.08 1567.47 1171.08 1560.12 M1185.82 1537.68 L1185.82 1537.68 Z" fill="#000000" fill-rule="nonzero" fill-opacity="1" /><path clip-path="url(#clip440)" d="M1243.49 1554.9 L1243.49 1557.76 L1216.56 1557.76 Q1216.95 1563.81 1220.19 1566.99 Q1223.47 1570.14 1229.29 1570.14 Q1232.67 1570.14 1235.82 1569.32 Q1239 1568.49 1242.12 1566.83 L1242.12 1572.37 Q1238.97 1573.71 1235.66 1574.41 Q1232.35 1575.11 1228.94 1575.11 Q1220.41 1575.11 1215.42 1570.14 Q1210.45 1565.18 1210.45 1556.71 Q1210.45 1547.96 1215.16 1542.83 Q1219.91 1537.68 1227.93 1537.68 Q1235.12 1537.68 1239.29 1542.33 Q1243.49 1546.94 1243.49 1554.9 M1237.63 1553.18 Q1237.57 1548.37 1234.93 1545.51 Q1232.32 1542.64 1227.99 1542.64 Q1223.09 1542.64 1220.13 1545.41 Q1217.2 1548.18 1216.75 1553.21 L1237.63 1553.18 Z" fill="#000000" fill-rule="nonzero" fill-opacity="1" /><path clip-path="url(#clip440)" d="M1282.73 1552.67 L1282.73 1574.19 L1276.88 1574.19 L1276.88 1552.86 Q1276.88 1547.8 1274.9 1545.29 Q1272.93 1542.77 1268.98 1542.77 Q1264.24 1542.77 1261.51 1545.79 Q1258.77 1548.82 1258.77 1554.04 L1258.77 1574.19 L1252.88 1574.19 L1252.88 1538.54 L1258.77 1538.54 L1258.77 1544.08 Q1260.87 1540.86 1263.7 1539.27 Q1266.57 1537.68 1270.29 1537.68 Q1276.43 1537.68 1279.58 1541.5 Q1282.73 1545.29 1282.73 1552.67 Z" fill="#000000" fill-rule="nonzero" fill-opacity="1" /><path clip-path="url(#clip440)" d="M1320.07 1539.91 L1320.07 1545.38 Q1317.59 1544.01 1315.07 1543.34 Q1312.59 1542.64 1310.04 1542.64 Q1304.35 1542.64 1301.2 1546.27 Q1298.04 1549.87 1298.04 1556.39 Q1298.04 1562.92 1301.2 1566.55 Q1304.35 1570.14 1310.04 1570.14 Q1312.59 1570.14 1315.07 1569.47 Q1317.59 1568.77 1320.07 1567.41 L1320.07 1572.82 Q1317.62 1573.96 1314.98 1574.54 Q1312.37 1575.11 1309.41 1575.11 Q1301.35 1575.11 1296.61 1570.05 Q1291.87 1564.99 1291.87 1556.39 Q1291.87 1547.67 1296.64 1542.68 Q1301.45 1537.68 1309.79 1537.68 Q1312.49 1537.68 1315.07 1538.25 Q1317.65 1538.79 1320.07 1539.91 Z" fill="#000000" fill-rule="nonzero" fill-opacity="1" /><path clip-path="url(#clip440)" d="M1345.09 1577.5 Q1342.6 1583.86 1340.25 1585.8 Q1337.89 1587.74 1333.95 1587.74 L1329.27 1587.74 L1329.27 1582.84 L1332.71 1582.84 Q1335.12 1582.84 1336.46 1581.7 Q1337.8 1580.55 1339.42 1576.29 L1340.47 1573.61 L1326.05 1538.54 L1332.26 1538.54 L1343.4 1566.42 L1354.54 1538.54 L1360.75 1538.54 L1345.09 1577.5 Z" fill="#000000" fill-rule="nonzero" fill-opacity="1" /><path clip-path="url(#clip440)" d="M1389.01 1524.66 L1402.51 1524.66 L1402.51 1529.21 L1394.87 1529.21 L1394.87 1578.23 L1402.51 1578.23 L1402.51 1582.78 L1389.01 1582.78 L1389.01 1524.66 Z" fill="#000000" fill-rule="nonzero" fill-opacity="1" /><path clip-path="url(#clip440)" d="M1435.64 1544.01 Q1434.65 1543.44 1433.47 1543.18 Q1432.33 1542.9 1430.93 1542.9 Q1425.96 1542.9 1423.29 1546.14 Q1420.65 1549.36 1420.65 1555.41 L1420.65 1574.19 L1414.76 1574.19 L1414.76 1538.54 L1420.65 1538.54 L1420.65 1544.08 Q1422.49 1540.83 1425.45 1539.27 Q1428.41 1537.68 1432.65 1537.68 Q1433.25 1537.68 1433.98 1537.77 Q1434.72 1537.84 1435.61 1538 L1435.64 1544.01 Z" fill="#000000" fill-rule="nonzero" fill-opacity="1" /><path clip-path="url(#clip440)" d="M1457.98 1556.27 Q1450.88 1556.27 1448.15 1557.89 Q1445.41 1559.51 1445.41 1563.43 Q1445.41 1566.55 1447.45 1568.39 Q1449.52 1570.21 1453.05 1570.21 Q1457.92 1570.21 1460.85 1566.77 Q1463.81 1563.3 1463.81 1557.57 L1463.81 1556.27 L1457.98 1556.27 M1469.66 1553.85 L1469.66 1574.19 L1463.81 1574.19 L1463.81 1568.77 Q1461.8 1572.02 1458.81 1573.58 Q1455.82 1575.11 1451.49 1575.11 Q1446.02 1575.11 1442.77 1572.05 Q1439.55 1568.97 1439.55 1563.81 Q1439.55 1557.79 1443.56 1554.74 Q1447.61 1551.68 1455.6 1551.68 L1463.81 1551.68 L1463.81 1551.11 Q1463.81 1547.07 1461.13 1544.87 Q1458.49 1542.64 1453.69 1542.64 Q1450.63 1542.64 1447.73 1543.38 Q1444.84 1544.11 1442.16 1545.57 L1442.16 1540.16 Q1445.38 1538.92 1448.4 1538.31 Q1451.43 1537.68 1454.29 1537.68 Q1462.02 1537.68 1465.84 1541.69 Q1469.66 1545.7 1469.66 1553.85 Z" fill="#000000" fill-rule="nonzero" fill-opacity="1" /><path clip-path="url(#clip440)" d="M1505.18 1543.95 L1505.18 1524.66 L1511.04 1524.66 L1511.04 1574.19 L1505.18 1574.19 L1505.18 1568.84 Q1503.34 1572.02 1500.51 1573.58 Q1497.7 1575.11 1493.76 1575.11 Q1487.3 1575.11 1483.22 1569.95 Q1479.18 1564.8 1479.18 1556.39 Q1479.18 1547.99 1483.22 1542.83 Q1487.3 1537.68 1493.76 1537.68 Q1497.7 1537.68 1500.51 1539.24 Q1503.34 1540.77 1505.18 1543.95 M1485.23 1556.39 Q1485.23 1562.85 1487.87 1566.55 Q1490.54 1570.21 1495.19 1570.21 Q1499.84 1570.21 1502.51 1566.55 Q1505.18 1562.85 1505.18 1556.39 Q1505.18 1549.93 1502.51 1546.27 Q1499.84 1542.58 1495.19 1542.58 Q1490.54 1542.58 1487.87 1546.27 Q1485.23 1549.93 1485.23 1556.39 Z" fill="#000000" fill-rule="nonzero" fill-opacity="1" /><path clip-path="url(#clip440)" d="M1533.51 1526.67 L1538.92 1526.67 L1522.37 1580.23 L1516.96 1580.23 L1533.51 1526.67 Z" fill="#000000" fill-rule="nonzero" fill-opacity="1" /><path clip-path="url(#clip440)" d="M1567.79 1539.59 L1567.79 1545.13 Q1565.31 1543.85 1562.63 1543.22 Q1559.96 1542.58 1557.1 1542.58 Q1552.74 1542.58 1550.54 1543.92 Q1548.38 1545.25 1548.38 1547.93 Q1548.38 1549.96 1549.94 1551.14 Q1551.49 1552.29 1556.21 1553.34 L1558.21 1553.78 Q1564.45 1555.12 1567.06 1557.57 Q1569.7 1559.99 1569.7 1564.35 Q1569.7 1569.32 1565.75 1572.21 Q1561.84 1575.11 1554.96 1575.11 Q1552.1 1575.11 1548.98 1574.54 Q1545.89 1573.99 1542.46 1572.88 L1542.46 1566.83 Q1545.7 1568.52 1548.85 1569.38 Q1552 1570.21 1555.09 1570.21 Q1559.23 1570.21 1561.46 1568.81 Q1563.69 1567.37 1563.69 1564.8 Q1563.69 1562.41 1562.06 1561.14 Q1560.47 1559.86 1555.03 1558.68 L1552.99 1558.21 Q1547.55 1557.06 1545.13 1554.71 Q1542.71 1552.32 1542.71 1548.18 Q1542.71 1543.15 1546.27 1540.42 Q1549.84 1537.68 1556.4 1537.68 Q1559.64 1537.68 1562.51 1538.16 Q1565.37 1538.63 1567.79 1539.59 Z" fill="#000000" fill-rule="nonzero" fill-opacity="1" /><path clip-path="url(#clip440)" d="M1592.71 1524.66 L1592.71 1582.78 L1579.22 1582.78 L1579.22 1578.23 L1586.82 1578.23 L1586.82 1529.21 L1579.22 1529.21 L1579.22 1524.66 L1592.71 1524.66 Z" fill="#000000" fill-rule="nonzero" fill-opacity="1" /><polyline clip-path="url(#clip440)" style="stroke:#000000; stroke-linecap:round; stroke-linejoin:round; stroke-width:4; stroke-opacity:1; fill:none" points="272.297,1410.9 272.297,815.61 "/>
<polyline clip-path="url(#clip440)" style="stroke:#000000; stroke-linecap:round; stroke-linejoin:round; stroke-width:4; stroke-opacity:1; fill:none" points="272.297,1300.59 291.194,1300.59 "/>
<polyline clip-path="url(#clip440)" style="stroke:#000000; stroke-linecap:round; stroke-linejoin:round; stroke-width:4; stroke-opacity:1; fill:none" points="272.297,1144.52 291.194,1144.52 "/>
<polyline clip-path="url(#clip440)" style="stroke:#000000; stroke-linecap:round; stroke-linejoin:round; stroke-width:4; stroke-opacity:1; fill:none" points="272.297,988.45 291.194,988.45 "/>
<polyline clip-path="url(#clip440)" style="stroke:#000000; stroke-linecap:round; stroke-linejoin:round; stroke-width:4; stroke-opacity:1; fill:none" points="272.297,832.382 291.194,832.382 "/>
<path clip-path="url(#clip440)" d="M114.26 1301.04 L143.936 1301.04 L143.936 1304.97 L114.26 1304.97 L114.26 1301.04 Z" fill="#000000" fill-rule="nonzero" fill-opacity="1" /><path clip-path="url(#clip440)" d="M154.839 1313.93 L162.477 1313.93 L162.477 1287.57 L154.167 1289.23 L154.167 1284.97 L162.431 1283.31 L167.107 1283.31 L167.107 1313.93 L174.746 1313.93 L174.746 1317.87 L154.839 1317.87 L154.839 1313.93 Z" fill="#000000" fill-rule="nonzero" fill-opacity="1" /><path clip-path="url(#clip440)" d="M184.237 1283.31 L202.593 1283.31 L202.593 1287.24 L188.519 1287.24 L188.519 1295.71 Q189.538 1295.37 190.556 1295.2 Q191.575 1295.02 192.593 1295.02 Q198.38 1295.02 201.76 1298.19 Q205.139 1301.36 205.139 1306.78 Q205.139 1312.36 201.667 1315.46 Q198.195 1318.54 191.875 1318.54 Q189.7 1318.54 187.431 1318.17 Q185.186 1317.8 182.778 1317.06 L182.778 1312.36 Q184.862 1313.49 187.084 1314.05 Q189.306 1314.6 191.783 1314.6 Q195.787 1314.6 198.125 1312.5 Q200.463 1310.39 200.463 1306.78 Q200.463 1303.17 198.125 1301.06 Q195.787 1298.95 191.783 1298.95 Q189.908 1298.95 188.033 1299.37 Q186.181 1299.79 184.237 1300.67 L184.237 1283.31 Z" fill="#000000" fill-rule="nonzero" fill-opacity="1" /><path clip-path="url(#clip440)" d="M224.352 1286.39 Q220.741 1286.39 218.912 1289.95 Q217.107 1293.49 217.107 1300.62 Q217.107 1307.73 218.912 1311.29 Q220.741 1314.83 224.352 1314.83 Q227.986 1314.83 229.792 1311.29 Q231.621 1307.73 231.621 1300.62 Q231.621 1293.49 229.792 1289.95 Q227.986 1286.39 224.352 1286.39 M224.352 1282.68 Q230.162 1282.68 233.218 1287.29 Q236.297 1291.87 236.297 1300.62 Q236.297 1309.35 233.218 1313.95 Q230.162 1318.54 224.352 1318.54 Q218.542 1318.54 215.463 1313.95 Q212.408 1309.35 212.408 1300.62 Q212.408 1291.87 215.463 1287.29 Q218.542 1282.68 224.352 1282.68 Z" fill="#000000" fill-rule="nonzero" fill-opacity="1" /><path clip-path="url(#clip440)" d="M114.26 1144.97 L143.936 1144.97 L143.936 1148.9 L114.26 1148.9 L114.26 1144.97 Z" fill="#000000" fill-rule="nonzero" fill-opacity="1" /><path clip-path="url(#clip440)" d="M154.839 1157.86 L162.477 1157.86 L162.477 1131.5 L154.167 1133.16 L154.167 1128.91 L162.431 1127.24 L167.107 1127.24 L167.107 1157.86 L174.746 1157.86 L174.746 1161.8 L154.839 1161.8 L154.839 1157.86 Z" fill="#000000" fill-rule="nonzero" fill-opacity="1" /><path clip-path="url(#clip440)" d="M194.19 1130.32 Q190.579 1130.32 188.75 1133.88 Q186.945 1137.42 186.945 1144.55 Q186.945 1151.66 188.75 1155.22 Q190.579 1158.77 194.19 1158.77 Q197.825 1158.77 199.63 1155.22 Q201.459 1151.66 201.459 1144.55 Q201.459 1137.42 199.63 1133.88 Q197.825 1130.32 194.19 1130.32 M194.19 1126.61 Q200 1126.61 203.056 1131.22 Q206.135 1135.8 206.135 1144.55 Q206.135 1153.28 203.056 1157.89 Q200 1162.47 194.19 1162.47 Q188.38 1162.47 185.301 1157.89 Q182.246 1153.28 182.246 1144.55 Q182.246 1135.8 185.301 1131.22 Q188.38 1126.61 194.19 1126.61 Z" fill="#000000" fill-rule="nonzero" fill-opacity="1" /><path clip-path="url(#clip440)" d="M224.352 1130.32 Q220.741 1130.32 218.912 1133.88 Q217.107 1137.42 217.107 1144.55 Q217.107 1151.66 218.912 1155.22 Q220.741 1158.77 224.352 1158.77 Q227.986 1158.77 229.792 1155.22 Q231.621 1151.66 231.621 1144.55 Q231.621 1137.42 229.792 1133.88 Q227.986 1130.32 224.352 1130.32 M224.352 1126.61 Q230.162 1126.61 233.218 1131.22 Q236.297 1135.8 236.297 1144.55 Q236.297 1153.28 233.218 1157.89 Q230.162 1162.47 224.352 1162.47 Q218.542 1162.47 215.463 1157.89 Q212.408 1153.28 212.408 1144.55 Q212.408 1135.8 215.463 1131.22 Q218.542 1126.61 224.352 1126.61 Z" fill="#000000" fill-rule="nonzero" fill-opacity="1" /><path clip-path="url(#clip440)" d="M144.422 988.901 L174.098 988.901 L174.098 992.837 L144.422 992.837 L144.422 988.901 Z" fill="#000000" fill-rule="nonzero" fill-opacity="1" /><path clip-path="url(#clip440)" d="M184.237 971.17 L202.593 971.17 L202.593 975.105 L188.519 975.105 L188.519 983.577 Q189.538 983.23 190.556 983.068 Q191.575 982.883 192.593 982.883 Q198.38 982.883 201.76 986.054 Q205.139 989.226 205.139 994.642 Q205.139 1000.22 201.667 1003.32 Q198.195 1006.4 191.875 1006.4 Q189.7 1006.4 187.431 1006.03 Q185.186 1005.66 182.778 1004.92 L182.778 1000.22 Q184.862 1001.36 187.084 1001.91 Q189.306 1002.47 191.783 1002.47 Q195.787 1002.47 198.125 1000.36 Q200.463 998.253 200.463 994.642 Q200.463 991.031 198.125 988.925 Q195.787 986.818 191.783 986.818 Q189.908 986.818 188.033 987.235 Q186.181 987.651 184.237 988.531 L184.237 971.17 Z" fill="#000000" fill-rule="nonzero" fill-opacity="1" /><path clip-path="url(#clip440)" d="M224.352 974.249 Q220.741 974.249 218.912 977.814 Q217.107 981.355 217.107 988.485 Q217.107 995.591 218.912 999.156 Q220.741 1002.7 224.352 1002.7 Q227.986 1002.7 229.792 999.156 Q231.621 995.591 231.621 988.485 Q231.621 981.355 229.792 977.814 Q227.986 974.249 224.352 974.249 M224.352 970.545 Q230.162 970.545 233.218 975.152 Q236.297 979.735 236.297 988.485 Q236.297 997.212 233.218 1001.82 Q230.162 1006.4 224.352 1006.4 Q218.542 1006.4 215.463 1001.82 Q212.408 997.212 212.408 988.485 Q212.408 979.735 215.463 975.152 Q218.542 970.545 224.352 970.545 Z" fill="#000000" fill-rule="nonzero" fill-opacity="1" /><path clip-path="url(#clip440)" d="M224.352 818.18 Q220.741 818.18 218.912 821.745 Q217.107 825.287 217.107 832.416 Q217.107 839.523 218.912 843.088 Q220.741 846.629 224.352 846.629 Q227.986 846.629 229.792 843.088 Q231.621 839.523 231.621 832.416 Q231.621 825.287 229.792 821.745 Q227.986 818.18 224.352 818.18 M224.352 814.477 Q230.162 814.477 233.218 819.083 Q236.297 823.666 236.297 832.416 Q236.297 841.143 233.218 845.75 Q230.162 850.333 224.352 850.333 Q218.542 850.333 215.463 845.75 Q212.408 841.143 212.408 832.416 Q212.408 823.666 215.463 819.083 Q218.542 814.477 224.352 814.477 Z" fill="#000000" fill-rule="nonzero" fill-opacity="1" /><path clip-path="url(#clip440)" d="M21.7677 1295.36 L39.6235 1295.36 L39.6235 1287.28 Q39.6235 1282.79 37.3 1280.34 Q34.9765 1277.89 30.6797 1277.89 Q26.4147 1277.89 24.0912 1280.34 Q21.7677 1282.79 21.7677 1287.28 L21.7677 1295.36 M16.4842 1301.79 L16.4842 1287.28 Q16.4842 1279.29 20.1126 1275.21 Q23.7092 1271.11 30.6797 1271.11 Q37.7138 1271.11 41.3104 1275.21 Q44.907 1279.29 44.907 1287.28 L44.907 1295.36 L64.0042 1295.36 L64.0042 1301.79 L16.4842 1301.79 Z" fill="#000000" fill-rule="nonzero" fill-opacity="1" /><path clip-path="url(#clip440)" d="M42.4881 1233.1 L64.0042 1233.1 L64.0042 1238.96 L42.679 1238.96 Q37.6183 1238.96 35.1038 1240.93 Q32.5894 1242.91 32.5894 1246.85 Q32.5894 1251.6 35.6131 1254.33 Q38.6368 1257.07 43.8567 1257.07 L64.0042 1257.07 L64.0042 1262.96 L14.479 1262.96 L14.479 1257.07 L33.8944 1257.07 Q30.6797 1254.97 29.0883 1252.14 Q27.4968 1249.27 27.4968 1245.55 Q27.4968 1239.41 31.3163 1236.25 Q35.1038 1233.1 42.4881 1233.1 Z" fill="#000000" fill-rule="nonzero" fill-opacity="1" /><path clip-path="url(#clip440)" d="M46.0847 1205.22 Q46.0847 1212.32 47.7079 1215.06 Q49.3312 1217.79 53.2461 1217.79 Q56.3653 1217.79 58.2114 1215.76 Q60.0256 1213.69 60.0256 1210.16 Q60.0256 1205.29 56.5881 1202.36 Q53.1188 1199.4 47.3897 1199.4 L46.0847 1199.4 L46.0847 1205.22 M43.6657 1193.54 L64.0042 1193.54 L64.0042 1199.4 L58.5933 1199.4 Q61.8398 1201.4 63.3994 1204.39 Q64.9272 1207.39 64.9272 1211.71 Q64.9272 1217.19 61.8716 1220.44 Q58.7843 1223.65 53.6281 1223.65 Q47.6125 1223.65 44.5569 1219.64 Q41.5014 1215.6 41.5014 1207.61 L41.5014 1199.4 L40.9285 1199.4 Q36.8862 1199.4 34.6901 1202.07 Q32.4621 1204.71 32.4621 1209.52 Q32.4621 1212.57 33.1941 1215.47 Q33.9262 1218.37 35.3903 1221.04 L29.9795 1221.04 Q28.7381 1217.83 28.1334 1214.8 Q27.4968 1211.78 27.4968 1208.91 Q27.4968 1201.18 31.5072 1197.36 Q35.5176 1193.54 43.6657 1193.54 Z" fill="#000000" fill-rule="nonzero" fill-opacity="1" /><path clip-path="url(#clip440)" d="M29.4065 1158.75 L34.9447 1158.75 Q33.6716 1161.23 33.035 1163.91 Q32.3984 1166.58 32.3984 1169.45 Q32.3984 1173.81 33.7352 1176 Q35.072 1178.17 37.7456 1178.17 Q39.7826 1178.17 40.9603 1176.61 Q42.1061 1175.05 43.1565 1170.34 L43.6021 1168.33 Q44.9389 1162.09 47.3897 1159.48 Q49.8086 1156.84 54.1691 1156.84 Q59.1344 1156.84 62.0308 1160.79 Q64.9272 1164.7 64.9272 1171.58 Q64.9272 1174.44 64.3543 1177.56 Q63.8132 1180.65 62.6992 1184.09 L56.6518 1184.09 Q58.3387 1180.84 59.198 1177.69 Q60.0256 1174.54 60.0256 1171.45 Q60.0256 1167.31 58.6251 1165.09 Q57.1929 1162.86 54.6147 1162.86 Q52.2276 1162.86 50.9545 1164.48 Q49.6813 1166.07 48.5037 1171.52 L48.0262 1173.55 Q46.8804 1179 44.5251 1181.41 Q42.138 1183.83 38.0002 1183.83 Q32.9713 1183.83 30.2341 1180.27 Q27.4968 1176.7 27.4968 1170.15 Q27.4968 1166.9 27.9743 1164.04 Q28.4517 1161.17 29.4065 1158.75 Z" fill="#000000" fill-rule="nonzero" fill-opacity="1" /><path clip-path="url(#clip440)" d="M44.7161 1117.03 L47.5806 1117.03 L47.5806 1143.95 Q53.6281 1143.57 56.8109 1140.32 Q59.9619 1137.05 59.9619 1131.22 Q59.9619 1127.85 59.1344 1124.7 Q58.3069 1121.51 56.6518 1118.39 L62.1899 1118.39 Q63.5267 1121.54 64.227 1124.85 Q64.9272 1128.17 64.9272 1131.57 Q64.9272 1140.1 59.9619 1145.1 Q54.9967 1150.06 46.5303 1150.06 Q37.7774 1150.06 32.6531 1145.35 Q27.4968 1140.61 27.4968 1132.59 Q27.4968 1125.4 32.1438 1121.23 Q36.7589 1117.03 44.7161 1117.03 M42.9973 1122.88 Q38.1912 1122.95 35.3266 1125.59 Q32.4621 1128.2 32.4621 1132.53 Q32.4621 1137.43 35.2312 1140.39 Q38.0002 1143.32 43.0292 1143.76 L42.9973 1122.88 Z" fill="#000000" fill-rule="nonzero" fill-opacity="1" /><path clip-path="url(#clip440)" d="M14.5426 1072.62 Q21.8632 1076.89 29.0246 1078.96 Q36.186 1081.03 43.5384 1081.03 Q50.8908 1081.03 58.1159 1078.96 Q65.3091 1076.86 72.5979 1072.62 L72.5979 1077.72 Q65.1182 1082.49 57.8931 1084.88 Q50.668 1087.23 43.5384 1087.23 Q36.4406 1087.23 29.2474 1084.88 Q22.0542 1082.52 14.5426 1077.72 L14.5426 1072.62 Z" fill="#000000" fill-rule="nonzero" fill-opacity="1" /><path clip-path="url(#clip440)" d="M33.7671 1037.8 L14.479 1037.8 L14.479 1031.95 L64.0042 1031.95 L64.0042 1037.8 L58.657 1037.8 Q61.8398 1039.65 63.3994 1042.48 Q64.9272 1045.28 64.9272 1049.23 Q64.9272 1055.69 59.771 1059.77 Q54.6147 1063.81 46.212 1063.81 Q37.8093 1063.81 32.6531 1059.77 Q27.4968 1055.69 27.4968 1049.23 Q27.4968 1045.28 29.0564 1042.48 Q30.5842 1039.65 33.7671 1037.8 M46.212 1057.76 Q52.6732 1057.76 56.3653 1055.12 Q60.0256 1052.44 60.0256 1047.8 Q60.0256 1043.15 56.3653 1040.48 Q52.6732 1037.8 46.212 1037.8 Q39.7508 1037.8 36.0905 1040.48 Q32.3984 1043.15 32.3984 1047.8 Q32.3984 1052.44 36.0905 1055.12 Q39.7508 1057.76 46.212 1057.76 Z" fill="#000000" fill-rule="nonzero" fill-opacity="1" /><path clip-path="url(#clip440)" d="M44.7161 989.393 L47.5806 989.393 L47.5806 1016.32 Q53.6281 1015.94 56.8109 1012.69 Q59.9619 1009.41 59.9619 1003.59 Q59.9619 1000.21 59.1344 997.063 Q58.3069 993.88 56.6518 990.761 L62.1899 990.761 Q63.5267 993.912 64.227 997.222 Q64.9272 1000.53 64.9272 1003.94 Q64.9272 1012.47 59.9619 1017.47 Q54.9967 1022.43 46.5303 1022.43 Q37.7774 1022.43 32.6531 1017.72 Q27.4968 1012.98 27.4968 1004.96 Q27.4968 997.764 32.1438 993.594 Q36.7589 989.393 44.7161 989.393 M42.9973 995.249 Q38.1912 995.313 35.3266 997.954 Q32.4621 1000.56 32.4621 1004.89 Q32.4621 1009.79 35.2312 1012.75 Q38.0002 1015.68 43.0292 1016.13 L42.9973 995.249 Z" fill="#000000" fill-rule="nonzero" fill-opacity="1" /><path clip-path="url(#clip440)" d="M45.7664 956.323 Q39.4007 956.323 35.8996 958.965 Q32.3984 961.574 32.3984 966.317 Q32.3984 971.028 35.8996 973.669 Q39.4007 976.279 45.7664 976.279 Q52.1003 976.279 55.6014 973.669 Q59.1026 971.028 59.1026 966.317 Q59.1026 961.574 55.6014 958.965 Q52.1003 956.323 45.7664 956.323 M59.58 950.466 Q68.683 950.466 73.1071 954.509 Q77.5631 958.551 77.5631 966.89 Q77.5631 969.977 77.0857 972.714 Q76.6401 975.452 75.6852 978.03 L69.9879 978.03 Q71.3884 975.452 72.0568 972.937 Q72.7252 970.423 72.7252 967.813 Q72.7252 962.052 69.7015 959.187 Q66.7096 956.323 60.6303 956.323 L57.7339 956.323 Q60.885 958.137 62.4446 960.97 Q64.0042 963.802 64.0042 967.749 Q64.0042 974.306 59.0071 978.316 Q54.01 982.327 45.7664 982.327 Q37.491 982.327 32.4939 978.316 Q27.4968 974.306 27.4968 967.749 Q27.4968 963.802 29.0564 960.97 Q30.616 958.137 33.7671 956.323 L28.3562 956.323 L28.3562 950.466 L59.58 950.466 Z" fill="#000000" fill-rule="nonzero" fill-opacity="1" /><path clip-path="url(#clip440)" d="M14.5426 939.326 L14.5426 934.234 Q22.0542 929.459 29.2474 927.104 Q36.4406 924.717 43.5384 924.717 Q50.668 924.717 57.8931 927.104 Q65.1182 929.459 72.5979 934.234 L72.5979 939.326 Q65.3091 935.093 58.1159 933.024 Q50.8908 930.924 43.5384 930.924 Q36.186 930.924 29.0246 933.024 Q21.8632 935.093 14.5426 939.326 Z" fill="#000000" fill-rule="nonzero" fill-opacity="1" /><path clip-path="url(#clip443)" d="M331.177 832.56 L765.141 834.66 L932.808 838.532 L991.985 841.184 L1041.3 844.351 L1080.75 847.846 L1120.2 852.678 L1149.79 857.692 L1179.38 864.686 L1199.1 871.142 L1208.97 875.186 L1218.83 879.979 L1228.69 885.754 L1238.56 892.848 L1248.42 901.763 L1258.28 913.269 L1268.14 928.586 L1278.01 949.667 L1287.87 979.553 L1297.73 1022.19 L1307.59 1079.44 L1317.46 1144.25 L1327.32 1202.1 L1337.18 1245.41 L1347.05 1275.79 L1356.91 1297.2 L1366.77 1312.73 L1376.63 1324.38 L1386.5 1333.4 L1396.36 1340.56 L1406.22 1346.39 L1416.09 1351.22 L1425.95 1355.3 L1435.81 1358.78 L1445.67 1361.79 L1455.54 1364.43 L1475.26 1368.83 L1494.99 1372.35 L1524.58 1376.5 L1554.16 1379.7 L1583.75 1382.22 L1623.2 1384.85 L1672.52 1387.28 L1731.7 1389.36 L1889.5 1392.31 L2293.87 1394.05 L2293.87 1394.05 L1889.5 1392.31 L1731.7 1389.31 L1672.52 1387.15 L1623.2 1384.52 L1583.75 1381.53 L1554.16 1378.46 L1524.58 1374.23 L1494.99 1367.98 L1475.26 1361.8 L1455.54 1352.59 L1445.67 1346.03 L1435.81 1337.31 L1425.95 1325.16 L1416.09 1307.22 L1406.22 1278.79 L1396.36 1230.78 L1386.5 1153.49 L1376.63 1061.93 L1366.77 989.555 L1356.91 944.553 L1347.05 917.495 L1337.18 900.239 L1327.32 888.463 L1317.46 879.963 L1307.59 873.548 L1297.73 868.535 L1287.87 864.506 L1278.01 861.193 L1268.14 858.418 L1258.28 856.057 L1248.42 854.021 L1238.56 852.245 L1228.69 850.682 L1218.83 849.294 L1208.97 848.052 L1199.1 846.935 L1179.38 845.005 L1149.79 842.69 L1120.2 840.875 L1080.75 839.003 L1041.3 837.578 L991.985 836.241 L932.808 835.095 L765.141 833.392 L331.177 832.461  Z" fill="#009af9" fill-rule="evenodd" fill-opacity="0.5"/>
<polyline clip-path="url(#clip443)" style="stroke:#009af9; stroke-linecap:round; stroke-linejoin:round; stroke-width:4; stroke-opacity:1; fill:none" points="331.177,832.522 765.141,834.172 932.808,837.208 991.985,839.276 1041.3,841.729 1080.75,844.408 1120.2,848.059 1149.79,851.776 1179.38,856.834 1199.1,861.376 1208.97,864.163 1218.83,867.412 1228.69,871.254 1238.56,875.873 1248.42,881.539 1258.28,888.657 1268.14,897.854 1278.01,910.13 1287.87,927.079 1297.73,951.052 1307.59,984.525 1317.46,1027.43 1327.32,1074.9 1337.18,1121.08 1347.05,1163.51 1356.91,1202.28 1366.77,1237.85 1376.63,1270.01 1386.5,1297.28 1396.36,1317.59 1406.22,1331.35 1416.09,1340.9 1425.95,1347.92 1435.81,1353.35 1445.67,1357.7 1455.54,1361.3 1475.26,1366.91 1494.99,1371.13 1524.58,1375.85 1554.16,1379.34 1583.75,1382.02 1623.2,1384.75 1672.52,1387.24 1731.7,1389.34 1889.5,1392.31 2293.87,1394.05 "/>
<polyline clip-path="url(#clip443)" style="stroke:#009af9; stroke-linecap:round; stroke-linejoin:round; stroke-width:4; stroke-opacity:0.25; fill:none" points="331.177,832.56 765.141,834.664 932.808,838.544 991.985,841.202 1041.3,844.376 1080.75,847.878 1120.2,852.722 1149.79,857.75 1179.38,864.766 1199.1,871.243 1208.97,875.302 1218.83,880.114 1228.69,885.913 1238.56,893.039 1248.42,901.998 1258.28,913.566 1268.14,928.97 1278.01,950.181 1287.87,980.254 1297.73,1023.12 1307.59,1080.56 1317.46,1145.32 1327.32,1202.9 1337.18,1245.94 1347.05,1276.14 1356.91,1297.43 1366.77,1312.89 1376.63,1324.49 1386.5,1333.48 1396.36,1340.62 1406.22,1346.43 1416.09,1351.26 1425.95,1355.32 1435.81,1358.8 1445.67,1361.81 1455.54,1364.44 1475.26,1368.84 1494.99,1372.36 1524.58,1376.5 1554.16,1379.7 1583.75,1382.22 1623.2,1384.85 1672.52,1387.28 1731.7,1389.36 1889.5,1392.31 2293.87,1394.05 "/>
<polyline clip-path="url(#clip443)" style="stroke:#009af9; stroke-linecap:round; stroke-linejoin:round; stroke-width:4; stroke-opacity:0.25; fill:none" points="331.177,832.547 765.141,834.495 932.808,838.083 991.985,840.535 1041.3,843.455 1080.75,846.662 1120.2,851.068 1149.79,855.599 1179.38,861.847 1199.1,867.537 1208.97,871.065 1218.83,875.21 1228.69,880.154 1238.56,886.157 1248.42,893.6 1258.28,903.06 1268.14,915.438 1278.01,932.194 1287.87,955.702 1297.73,989.647 1307.59,1038.34 1317.46,1101.72 1327.32,1167.99 1337.18,1222.19 1347.05,1260.73 1356.91,1287.32 1366.77,1306.05 1376.63,1319.72 1386.5,1330.05 1396.36,1338.1 1406.22,1344.54 1416.09,1349.82 1425.95,1354.21 1435.81,1357.93 1445.67,1361.12 1455.54,1363.9 1475.26,1368.48 1494.99,1372.13 1524.58,1376.38 1554.16,1379.63 1583.75,1382.18 1623.2,1384.83 1672.52,1387.28 1731.7,1389.35 1889.5,1392.31 2293.87,1394.05 "/>
<polyline clip-path="url(#clip443)" style="stroke:#009af9; stroke-linecap:round; stroke-linejoin:round; stroke-width:4; stroke-opacity:0.25; fill:none" points="331.177,832.475 765.141,833.575 932.808,835.589 991.985,836.947 1041.3,838.537 1080.75,840.24 1120.2,842.495 1149.79,844.701 1179.38,847.553 1199.1,849.964 1208.97,851.374 1218.83,852.956 1228.69,854.742 1238.56,856.778 1248.42,859.121 1258.28,861.85 1268.14,865.073 1278.01,868.942 1287.87,873.68 1297.73,879.622 1307.59,887.295 1317.46,897.571 1327.32,911.972 1337.18,933.321 1347.05,966.994 1356.91,1022.1 1366.77,1103.85 1376.63,1189.42 1386.5,1250.22 1396.36,1287.51 1406.22,1310.87 1416.09,1326.44 1425.95,1337.42 1435.81,1345.55 1445.67,1351.8 1455.54,1356.76 1475.26,1364.13 1494.99,1369.37 1524.58,1374.92 1554.16,1378.83 1583.75,1381.73 1623.2,1384.61 1672.52,1387.19 1731.7,1389.32 1889.5,1392.31 2293.87,1394.05 "/>
<polyline clip-path="url(#clip443)" style="stroke:#009af9; stroke-linecap:round; stroke-linejoin:round; stroke-width:4; stroke-opacity:0.25; fill:none" points="331.177,832.551 765.141,834.548 932.808,838.229 991.985,840.746 1041.3,843.746 1080.75,847.046 1120.2,851.589 1149.79,856.275 1179.38,862.761 1199.1,868.693 1208.97,872.383 1218.83,876.731 1228.69,881.935 1238.56,888.277 1248.42,896.175 1258.28,906.264 1268.14,919.543 1278.01,937.623 1287.87,963.106 1297.73,999.859 1307.59,1051.7 1317.46,1116.36 1327.32,1180.27 1337.18,1230.68 1347.05,1266.22 1356.91,1290.89 1366.77,1308.44 1376.63,1321.38 1386.5,1331.23 1396.36,1338.97 1406.22,1345.19 1416.09,1350.31 1425.95,1354.59 1435.81,1358.22 1445.67,1361.36 1455.54,1364.08 1475.26,1368.6 1494.99,1372.2 1524.58,1376.42 1554.16,1379.65 1583.75,1382.2 1623.2,1384.84 1672.52,1387.28 1731.7,1389.35 1889.5,1392.31 2293.87,1394.05 "/>
<polyline clip-path="url(#clip443)" style="stroke:#009af9; stroke-linecap:round; stroke-linejoin:round; stroke-width:4; stroke-opacity:0.25; fill:none" points="331.177,832.466 765.141,833.458 932.808,835.272 991.985,836.494 1041.3,837.921 1080.75,839.445 1120.2,841.453 1149.79,843.406 1179.38,845.908 1199.1,848.004 1208.97,849.222 1218.83,850.579 1228.69,852.102 1238.56,853.825 1248.42,855.79 1258.28,858.055 1268.14,860.698 1278.01,863.827 1287.87,867.593 1297.73,872.22 1307.59,878.047 1317.46,885.614 1327.32,895.823 1337.18,910.282 1347.05,932.04 1356.91,967.103 1366.77,1025.95 1376.63,1113.61 1386.5,1201.14 1396.36,1259.79 1406.22,1294.74 1416.09,1316.44 1425.95,1330.86 1435.81,1341.05 1445.67,1348.6 1455.54,1354.42 1475.26,1362.8 1494.99,1368.57 1524.58,1374.52 1554.16,1378.61 1583.75,1381.62 1623.2,1384.56 1672.52,1387.17 1731.7,1389.32 1889.5,1392.31 2293.87,1394.05 "/>
<polyline clip-path="url(#clip443)" style="stroke:#009af9; stroke-linecap:round; stroke-linejoin:round; stroke-width:4; stroke-opacity:0.25; fill:none" points="331.177,832.537 765.141,834.367 932.808,837.736 991.985,840.034 1041.3,842.764 1080.75,845.752 1120.2,849.836 1149.79,854.008 1179.38,859.71 1199.1,864.848 1208.97,868.007 1218.83,871.696 1228.69,876.061 1238.56,881.314 1248.42,887.758 1258.28,895.847 1268.14,906.285 1278.01,920.196 1287.87,939.436 1297.73,967.058 1307.59,1007.58 1317.46,1064.84 1327.32,1133.72 1337.18,1197.29 1347.05,1244.56 1356.91,1276.94 1366.77,1299.2 1376.63,1315.05 1386.5,1326.76 1396.36,1335.72 1406.22,1342.78 1416.09,1348.49 1425.95,1353.19 1435.81,1357.14 1445.67,1360.5 1455.54,1363.41 1475.26,1368.17 1494.99,1371.92 1524.58,1376.26 1554.16,1379.56 1583.75,1382.15 1623.2,1384.81 1672.52,1387.27 1731.7,1389.35 1889.5,1392.31 2293.87,1394.05 "/>
<polyline clip-path="url(#clip443)" style="stroke:#009af9; stroke-linecap:round; stroke-linejoin:round; stroke-width:4; stroke-opacity:0.25; fill:none" points="331.177,832.542 765.141,834.434 932.808,837.918 991.985,840.296 1041.3,843.125 1080.75,846.227 1120.2,850.479 1149.79,854.837 1179.38,860.821 1199.1,866.243 1208.97,869.592 1218.83,873.514 1228.69,878.176 1238.56,883.811 1248.42,890.763 1258.28,899.546 1268.14,910.964 1278.01,926.309 1287.87,947.702 1297.73,978.551 1307.59,1023.41 1317.46,1084.38 1327.32,1152.52 1337.18,1211.22 1347.05,1253.63 1356.91,1282.73 1366.77,1303 1376.63,1317.63 1386.5,1328.57 1396.36,1337.03 1406.22,1343.75 1416.09,1349.21 1425.95,1353.75 1435.81,1357.57 1445.67,1360.84 1455.54,1363.67 1475.26,1368.34 1494.99,1372.03 1524.58,1376.32 1554.16,1379.6 1583.75,1382.17 1623.2,1384.82 1672.52,1387.27 1731.7,1389.35 1889.5,1392.31 2293.87,1394.05 "/>
<polyline clip-path="url(#clip443)" style="stroke:#009af9; stroke-linecap:round; stroke-linejoin:round; stroke-width:4; stroke-opacity:0.25; fill:none" points="331.177,832.555 765.141,834.593 932.808,838.351 991.985,840.922 1041.3,843.99 1080.75,847.368 1120.2,852.027 1149.79,856.844 1179.38,863.532 1199.1,869.672 1208.97,873.502 1218.83,878.026 1228.69,883.455 1238.56,890.093 1248.42,898.389 1258.28,909.031 1268.14,923.104 1278.01,942.354 1287.87,969.568 1297.73,1008.7 1307.59,1062.94 1317.46,1128.05 1327.32,1189.64 1337.18,1237.05 1347.05,1270.35 1356.91,1293.6 1366.77,1310.27 1376.63,1322.65 1386.5,1332.15 1396.36,1339.64 1406.22,1345.7 1416.09,1350.69 1425.95,1354.88 1435.81,1358.46 1445.67,1361.54 1455.54,1364.23 1475.26,1368.7 1494.99,1372.27 1524.58,1376.45 1554.16,1379.67 1583.75,1382.21 1623.2,1384.84 1672.52,1387.28 1731.7,1389.35 1889.5,1392.31 2293.87,1394.05 "/>
<polyline clip-path="url(#clip443)" style="stroke:#009af9; stroke-linecap:round; stroke-linejoin:round; stroke-width:4; stroke-opacity:0.25; fill:none" points="331.177,832.458 765.141,833.353 932.808,834.989 991.985,836.089 1041.3,837.371 1080.75,838.737 1120.2,840.528 1149.79,842.26 1179.38,844.464 1199.1,846.294 1208.97,847.35 1218.83,848.522 1228.69,849.829 1238.56,851.297 1248.42,852.959 1258.28,854.858 1268.14,857.05 1278.01,859.613 1287.87,862.653 1297.73,866.324 1307.59,870.848 1317.46,876.572 1327.32,884.047 1337.18,894.213 1347.05,908.769 1356.91,931.024 1366.77,967.72 1376.63,1030.93 1386.5,1124.9 1396.36,1213.37 1406.22,1269.22 1416.09,1301.7 1425.95,1321.74 1435.81,1335.06 1445.67,1344.49 1455.54,1351.49 1475.26,1361.2 1494.99,1367.63 1524.58,1374.05 1554.16,1378.37 1583.75,1381.48 1623.2,1384.5 1672.52,1387.14 1731.7,1389.31 1889.5,1392.31 2293.87,1394.05 "/>
<polyline clip-path="url(#clip443)" style="stroke:#009af9; stroke-linecap:round; stroke-linejoin:round; stroke-width:4; stroke-opacity:0.25; fill:none" points="331.177,832.485 765.141,833.704 932.808,835.938 991.985,837.447 1041.3,839.218 1080.75,841.122 1120.2,843.656 1149.79,846.153 1179.38,849.41 1199.1,852.192 1208.97,853.833 1218.83,855.684 1228.69,857.791 1238.56,860.212 1248.42,863.027 1258.28,866.343 1268.14,870.315 1278.01,875.161 1287.87,881.212 1297.73,888.983 1307.59,899.311 1317.46,913.638 1327.32,934.566 1337.18,966.905 1347.05,1018.57 1356.91,1094.71 1366.77,1177.7 1376.63,1240.18 1386.5,1279.8 1396.36,1304.91 1406.22,1321.69 1416.09,1333.52 1425.95,1342.27 1435.81,1348.99 1445.67,1354.31 1455.54,1358.63 1475.26,1365.23 1494.99,1370.05 1524.58,1375.27 1554.16,1379.01 1583.75,1381.84 1623.2,1384.66 1672.52,1387.21 1731.7,1389.33 1889.5,1392.31 2293.87,1394.05 "/>
<polyline clip-path="url(#clip443)" style="stroke:#009af9; stroke-linecap:round; stroke-linejoin:round; stroke-width:4; stroke-opacity:0.25; fill:none" points="331.177,832.558 765.141,834.628 932.808,838.446 991.985,841.06 1041.3,844.18 1080.75,847.619 1120.2,852.368 1149.79,857.289 1179.38,864.137 1199.1,870.442 1208.97,874.383 1218.83,879.047 1228.69,884.656 1238.56,891.531 1248.42,900.148 1258.28,911.238 1268.14,925.954 1278.01,946.152 1287.87,974.755 1297.73,1015.73 1307.59,1071.65 1317.46,1136.74 1327.32,1196.4 1337.18,1241.59 1347.05,1273.3 1356.91,1295.55 1366.77,1311.6 1376.63,1323.59 1386.5,1332.82 1396.36,1340.14 1406.22,1346.07 1416.09,1350.98 1425.95,1355.11 1435.81,1358.63 1445.67,1361.68 1455.54,1364.34 1475.26,1368.77 1494.99,1372.31 1524.58,1376.48 1554.16,1379.68 1583.75,1382.22 1623.2,1384.85 1672.52,1387.28 1731.7,1389.36 1889.5,1392.31 2293.87,1394.05 "/>
<polyline clip-path="url(#clip443)" style="stroke:#009af9; stroke-linecap:round; stroke-linejoin:round; stroke-width:4; stroke-opacity:0.25; fill:none" points="331.177,832.496 765.141,833.844 932.808,836.317 991.985,837.992 1041.3,839.961 1080.75,842.087 1120.2,844.932 1149.79,847.758 1179.38,851.479 1199.1,854.694 1208.97,856.606 1218.83,858.78 1228.69,861.273 1238.56,864.166 1248.42,867.566 1258.28,871.625 1268.14,876.561 1278.01,882.694 1287.87,890.523 1297.73,900.847 1307.59,915.016 1317.46,935.409 1327.32,966.293 1337.18,1014.53 1347.05,1085.18 1356.91,1165.2 1366.77,1229.17 1376.63,1271.25 1386.5,1298.31 1396.36,1316.46 1406.22,1329.26 1416.09,1338.7 1425.95,1345.95 1435.81,1351.67 1445.67,1356.31 1455.54,1360.15 1475.26,1366.14 1494.99,1370.61 1524.58,1375.56 1554.16,1379.18 1583.75,1381.93 1623.2,1384.71 1672.52,1387.23 1731.7,1389.34 1889.5,1392.31 2293.87,1394.05 "/>
<polyline clip-path="url(#clip443)" style="stroke:#009af9; stroke-linecap:round; stroke-linejoin:round; stroke-width:4; stroke-opacity:0.25; fill:none" points="331.177,832.559 765.141,834.652 932.808,838.511 991.985,841.154 1041.3,844.31 1080.75,847.791 1120.2,852.603 1149.79,857.594 1179.38,864.554 1199.1,870.973 1208.97,874.991 1218.83,879.753 1228.69,885.488 1238.56,892.528 1248.42,901.371 1258.28,912.775 1268.14,927.946 1278.01,948.811 1287.87,978.385 1297.73,1020.62 1307.59,1077.57 1317.46,1142.47 1327.32,1200.76 1337.18,1244.51 1347.05,1275.21 1356.91,1296.81 1366.77,1312.47 1376.63,1324.19 1386.5,1333.26 1396.36,1340.46 1406.22,1346.31 1416.09,1351.16 1425.95,1355.25 1435.81,1358.74 1445.67,1361.77 1455.54,1364.41 1475.26,1368.81 1494.99,1372.34 1524.58,1376.5 1554.16,1379.69 1583.75,1382.22 1623.2,1384.85 1672.52,1387.28 1731.7,1389.36 1889.5,1392.31 2293.87,1394.05 "/>
<polyline clip-path="url(#clip443)" style="stroke:#009af9; stroke-linecap:round; stroke-linejoin:round; stroke-width:4; stroke-opacity:0.25; fill:none" points="331.177,832.508 765.141,833.993 932.808,836.72 991.985,838.571 1041.3,840.754 1080.75,843.12 1120.2,846.305 1149.79,849.493 1179.38,853.737 1199.1,857.447 1208.97,859.676 1218.83,862.227 1228.69,865.179 1238.56,868.64 1248.42,872.757 1258.28,877.741 1268.14,883.903 1278.01,891.715 1287.87,901.928 1297.73,915.783 1307.59,935.419 1317.46,964.571 1327.32,1009.15 1337.18,1074.19 1347.05,1150.89 1356.91,1216.34 1366.77,1261.3 1376.63,1290.71 1386.5,1310.49 1396.36,1324.44 1406.22,1334.71 1416.09,1342.57 1425.95,1348.76 1435.81,1353.76 1445.67,1357.89 1455.54,1361.36 1475.26,1366.89 1494.99,1371.09 1524.58,1375.81 1554.16,1379.31 1583.75,1382.01 1623.2,1384.74 1672.52,1387.24 1731.7,1389.34 1889.5,1392.31 2293.87,1394.05 "/>
<polyline clip-path="url(#clip443)" style="stroke:#009af9; stroke-linecap:round; stroke-linejoin:round; stroke-width:4; stroke-opacity:0.25; fill:none" points="331.177,832.532 765.141,834.296 932.808,837.543 991.985,839.755 1041.3,842.38 1080.75,845.248 1120.2,849.156 1149.79,853.133 1179.38,858.541 1199.1,863.386 1208.97,866.352 1218.83,869.802 1228.69,873.868 1238.56,878.735 1248.42,884.671 1258.28,892.071 1268.14,901.543 1278.01,914.051 1287.87,931.187 1297.73,955.608 1307.59,991.535 1317.46,1043.88 1327.32,1111.68 1337.18,1179.92 1347.05,1233.08 1356.91,1269.66 1366.77,1294.5 1376.63,1311.89 1386.5,1324.57 1396.36,1334.16 1406.22,1341.64 1416.09,1347.63 1425.95,1352.54 1435.81,1356.64 1445.67,1360.11 1455.54,1363.1 1475.26,1367.97 1494.99,1371.79 1524.58,1376.19 1554.16,1379.52 1583.75,1382.12 1623.2,1384.8 1672.52,1387.26 1731.7,1389.35 1889.5,1392.31 2293.87,1394.05 "/>
<polyline clip-path="url(#clip443)" style="stroke:#009af9; stroke-linecap:round; stroke-linejoin:round; stroke-width:4; stroke-opacity:0.25; fill:none" points="331.177,832.52 765.141,834.146 932.808,837.135 991.985,839.168 1041.3,841.573 1080.75,844.189 1120.2,847.734 1149.79,851.312 1179.38,856.126 1199.1,860.387 1208.97,862.971 1218.83,865.953 1228.69,869.435 1238.56,873.561 1248.42,878.53 1258.28,884.635 1268.14,892.316 1278.01,902.258 1287.87,915.576 1297.73,934.145 1307.59,961.162 1317.46,1001.68 1327.32,1060.71 1337.18,1133.5 1347.05,1200.48 1356.91,1249.05 1366.77,1281.48 1376.63,1303.39 1386.5,1318.8 1396.36,1330.1 1406.22,1338.71 1416.09,1345.46 1425.95,1350.91 1435.81,1355.39 1445.67,1359.14 1455.54,1362.34 1475.26,1367.49 1494.99,1371.48 1524.58,1376.02 1554.16,1379.43 1583.75,1382.07 1623.2,1384.78 1672.52,1387.25 1731.7,1389.35 1889.5,1392.31 2293.87,1394.05 "/>
</svg>
